<svg xmlns="http://www.w3.org/2000/svg" viewBox="0 0 596 243">
  <defs>
    <style>
      .cls-1, .cls-4 {
        font-size: 117.12px;
        font-weight: 700;
      }

      .cls-1 {
        fill: #fc6460;
        font-family: Wallobee-Bold, Wallobee;
      }

      .cls-2 {
        fill: #404041;
      }

      .cls-3 {
        fill: #00b5be;
        opacity: 0.3;
      }

      .cls-4 {
        fill: #966b4e;
        font-family: Headmaster-Bold, Headmaster;
      }

      .cls-5 {
        fill: none;
        stroke: #fc6460;
        stroke-miterlimit: 10;
        stroke-width: 3px;
      }
    </style>
  </defs>
  <title>Asset 5</title>
  <g id="Layer_2" data-name="Layer 2">
    <g id="logo">
      <g id="group-logo">
        <text class="cls-1" transform="translate(56.49 170.64)">O</text>
        <g id="glass">
          <path class="cls-2" d="M124.12,44.48l-.53-1.13a2.61,2.61,0,0,0-3.18-1.68c-2.22.73-2.39.7-2.93.6l-.58-.09c-4.5-.61-9.74.28-15.14,2.57-8.7,3.68-16.38,10.35-18.6,14.65a28.32,28.32,0,0,0-4,1.2l0,0,0,0a27.48,27.48,0,0,0-3.62,2c-4.62-1.39-14.73-.52-23.41,3.15-5.42,2.29-9.72,5.45-12.43,9.12-.14.19-.24.34-.33.48-.31.46-.4.6-2.45,1.68a2.61,2.61,0,0,0-1,3.46c.29.75.39,1,.44,1.17s.06.16.12.3c.16.37.85,1.51,2.74.71l.29-.13.24-.09a3.05,3.05,0,0,1,.19.4l.12.32c4.6,12.27,12.31,18.46,21.13,17a30,30,0,0,0,6.78-1.9c7-3,14.71-10.25,11.65-28.11l0-.09a3.39,3.39,0,0,1,1.85-4l.12,0a3.48,3.48,0,0,1,4.3,1.42l.06.08C96.46,82.18,107,81.72,114,78.76a29.91,29.91,0,0,0,6.11-3.56c7.19-5.33,8.09-15.18,2.47-27l-.14-.3a3.08,3.08,0,0,1-.16-.41l.24-.11.27-.11h0c1.9-.8,1.56-2.09,1.4-2.47C124.19,44.63,124.19,44.63,124.12,44.48Zm-8.77,2.16c2.78,1.27,5,4.22,6.45,8.77,3.46,10.52-1.65,17.24-7.57,20l-.88.39c-9.45,4-17.49.74-23.88-9.68A7.09,7.09,0,0,1,88.51,60c2-6.33,12.59-10.88,16.07-12.37l.53-.23C109.23,45.68,112.67,45.42,115.35,46.64ZM43.85,76.92c1-2.78,3.59-5.07,7.71-6.82l.5-.21C55.56,68.44,66.19,64,72.13,67a7.09,7.09,0,0,1,3.73,4.93c3,11.86-.21,19.9-9.68,23.9l-.87.35c-6.12,2.33-14.49,1.32-19.65-8.48C43.44,83.42,42.83,79.81,43.85,76.92Z"/>
          <path class="cls-3" d="M43.85,76.92c1-2.78,3.59-5.07,7.71-6.82l.5-.21C55.56,68.44,66.19,64,72.13,67a7.09,7.09,0,0,1,3.73,4.93c3,11.86-.21,19.9-9.68,23.9l-.87.35c-6.12,2.33-14.49,1.32-19.65-8.48C43.44,83.42,42.83,79.81,43.85,76.92Z"/>
          <path class="cls-3" d="M121.88,55.42c3.44,10.52-1.67,17.24-7.6,20l-.86.38c-9.47,4-17.51.74-23.89-9.7A7.09,7.09,0,0,1,88.59,60c2-6.32,12.61-10.86,16.09-12.36l.5-.21c4.12-1.74,7.57-2,10.26-.79S120.39,50.86,121.88,55.42Z"/>
        </g>
        <text class="cls-4" transform="translate(273.21 170.64)">Brain</text>
        <text class="cls-1" transform="translate(133.72 170.64)">ba</text>
      </g>
    </g>
    <g id="border">
      <rect id="border-2" data-name="border" class="cls-5" x="1.5" y="1.5" width="593" height="240"/>
    </g>
  </g>
</svg>
