<svg xmlns="http://www.w3.org/2000/svg" viewBox="0 0 1050 1050">
  <defs>
    <style>
      .cls-1 {
        fill: #ff916e;
      }

      .cls-2 {
        fill: #cf7659;
      }

      .cls-3 {
        fill: #4d565e;
      }

      .cls-11, .cls-12, .cls-3, .cls-4, .cls-5, .cls-7, .cls-8 {
        fill-rule: evenodd;
      }

      .cls-4 {
        fill: #343b42;
      }

      .cls-5, .cls-6 {
        fill: #e6e6e6;
      }

      .cls-7 {
        fill: #fdda79;
      }

      .cls-8 {
        fill: #92deeb;
      }

      .cls-9 {
        fill: gray;
      }

      .cls-10 {
        fill: #f77b55;
      }

      .cls-11 {
        fill: #e6e5e5;
      }

      .cls-12 {
        fill: #363f48;
      }
    </style>
  </defs>
  <title>Asset 1</title>
  <g id="Layer_2" data-name="Layer 2">
    <g id="Coding">
      <g id="Coding-2" data-name="Coding">
        <circle id="Background" class="cls-1" cx="525" cy="525" r="525"/>
        <g id="Coding-3" data-name="Coding">
          <path id="Compound" class="cls-2" d="M765.18,186.4V419.13h-423v-235h423Zm-6.23,48.5H705.77v41.38h53.17Zm-59.62,0H646.14v41.38h53.17Zm-59.4,0H586.73v41.38h53.18Zm-59.62,0H527.11v41.38h53.18Zm-59.41,0h-53.4v41.38h53.4Zm-59.62,0H408.08v41.38h53.17Zm-59.41,0h-53.4v41.38h53.4Zm-53.4-4.67h53.4V188.85h-53.4Zm59.63,0h53.17V188.85H408.08Zm59.4,0h53.4V188.85h-53.4Zm59.64,0h53.18V188.85H527.11Zm59.62,0h53.18V188.85H586.73Zm59.41,0h53.17V188.85H646.14Zm59.63,0h53.17V188.85H705.77ZM758.94,281H705.77v41.38h53.17Zm-59.62,0H646.14v41.38h53.17Zm-59.4,0H586.73v41.38h53.18Zm-59.62,0H527.11v41.38h53.18Zm-59.41,0h-53.4v41.38h53.4Zm-59.62,0H408.08v41.38h53.17Zm-59.41,0h-53.4v41.38h53.4ZM758.94,327H705.77V368.4h53.17Zm-59.62,0H646.14V368.4h53.17Zm-59.4,0H586.73V368.4h53.18Zm-59.62,0H527.11V368.4h53.18Zm-59.41,0h-53.4V368.4h53.4Zm-59.62,0H408.08V368.4h53.17Zm-59.41,0h-53.4V368.4h53.4Zm357.1,46.06H705.77v41.38h53.17Zm-59.62,0H646.14v41.38h53.17Zm-59.4,0H586.73v41.38h53.18Zm-59.62,0H527.11v41.38h53.18Zm-59.41,0h-53.4v41.38h53.4Zm-59.62,0H408.08v41.38h53.17Zm-59.41,0h-53.4v41.38h53.4Z"/>
          <g id="Laptop">
            <path class="cls-3" d="M231.86,410H815.91a21.66,21.66,0,0,1,21.59,21.81V830.75H210.05V431.81A21.84,21.84,0,0,1,231.86,410Z"/>
            <path class="cls-4" d="M113,903.73H934.72c2.23,0,1.78-1.78-.9-3.79L845.5,832.08c-2.68-2.22-6.9-3.78-9.13-3.78h-625c-2.23,0-6.45,1.56-9.12,3.78l-88.33,67.86c-2.68,2-3.12,3.79-.89,3.79Z"/>
            <path class="cls-3" d="M116.16,898.83H931.61c6,0,6.67,5.12,1.33,11.34l-11.12,12.46c-5.57,6.23-14.91,11.13-21.14,11.13H147.08c-6.22,0-15.57-4.89-21.13-11.13l-11.13-12.46c-5.33-6.22-4.89-11.34,1.34-11.34Z"/>
            <polygon class="cls-5" points="459.91 865.9 494.4 865.9 553.35 865.9 587.85 865.9 607.21 887.04 534 887.04 513.76 887.04 440.56 887.04 459.91 865.9"/>
            <rect class="cls-6" x="229.85" y="437.15" width="588.06" height="372.23"/>
          </g>
          <g id="Circle">
            <path class="cls-7" d="M125.06,816.51c68.75,0,124.82-56.07,124.82-124.83S193.81,566.87,125.06,566.87.24,622.94.24,691.68,56.3,816.51,125.06,816.51Z"/>
            <path class="cls-8" d="M854.4,552c107.24,0,194.9-87.44,194.9-194.9,0-107.24-87.66-194.68-194.9-194.68S659.49,249.81,659.49,357.05c0,107.47,87.67,194.9,194.91,194.9Z"/>
          </g>
          <g id="Codes">
            <rect class="cls-9" x="270.79" y="507.9" width="324.62" height="18.47"/>
            <rect class="cls-9" x="460.14" y="544.17" width="192.46" height="15.79"/>
            <rect class="cls-9" x="282.13" y="577.54" width="192.24" height="15.8"/>
            <rect class="cls-9" x="282.13" y="647.41" width="192.24" height="15.8"/>
            <rect class="cls-9" x="282.13" y="675.22" width="192.24" height="16.02"/>
            <rect class="cls-10" x="491.06" y="675.22" width="60.74" height="16.02"/>
            <rect class="cls-9" x="572.94" y="675.22" width="60.74" height="16.02"/>
            <rect class="cls-9" x="496.18" y="648.3" width="137.5" height="15.8"/>
            <rect class="cls-9" x="517.32" y="577.54" width="103.68" height="15.8"/>
            <rect class="cls-9" x="295.71" y="544.17" width="55.62" height="15.79"/>
            <rect class="cls-10" x="375.36" y="544.17" width="55.62" height="15.79"/>
            <rect class="cls-10" x="630.79" y="507.9" width="49.62" height="18.47"/>
            <rect class="cls-9" x="282.13" y="714.38" width="61.41" height="15.8"/>
            <rect class="cls-10" x="364.02" y="714.38" width="61.41" height="15.8"/>
            <rect class="cls-9" x="452.35" y="714.38" width="99.45" height="15.8"/>
          </g>
          <g id="Text">
            <path class="cls-3" d="M47,696.81v-10l57.63-24.48V673L59,691.68l45.62,19.13V721.5Zm64.29,39.38,25.37-89.88h8.67l-25.36,89.88Zm98.12-39.37L152,721.5V710.82l45.39-19.13L152,673V662.32l57.4,24.48Z"/>
            <g>
              <polygon class="cls-3" points="712.89 356.83 712.89 347.04 757.39 323.24 757.39 333.69 722.02 351.93 757.39 370.63 757.39 381.08 712.89 356.83"/>
              <path class="cls-3" d="M806.78,358.17l7.35,1.11c-.9,5.12-2.9,9.12-6.23,12a18.41,18.41,0,0,1-12.46,4.23,19.3,19.3,0,0,1-14.68-6c-3.79-4-5.57-9.57-5.57-17.14a31.35,31.35,0,0,1,2.45-12.68,17.62,17.62,0,0,1,7.34-8.24,21.17,21.17,0,0,1,10.69-2.67,18.7,18.7,0,0,1,11.79,3.79,17.07,17.07,0,0,1,6,10.45l-7.34,1.12a12.14,12.14,0,0,0-3.79-6.9,10.76,10.76,0,0,0-6.45-2.22,11.62,11.62,0,0,0-9.35,4.22c-2.45,2.67-3.56,6.9-3.56,12.91s1.11,10.46,3.33,13.13a11.67,11.67,0,0,0,9.12,4,11.21,11.21,0,0,0,7.56-2.67c2-1.78,3.12-4.67,3.79-8.45Z"/>
              <path class="cls-3" d="M817.69,352.16c0-8.23,2.44-14.46,7.12-18.25a21.91,21.91,0,0,1,29.14.88c3.79,4,5.78,9.8,5.78,16.69,0,5.79-.89,10.46-2.67,13.57a17.8,17.8,0,0,1-7.34,7.79,23.27,23.27,0,0,1-10.9,2.67q-9.34,0-15.35-6c-3.79-4-5.79-9.79-5.79-17.36Zm7.78,0c0,5.78,1.34,10,3.79,12.9a12.36,12.36,0,0,0,9.56,4.23,11.61,11.61,0,0,0,9.35-4.23c2.67-2.89,3.78-7.12,3.78-13.13,0-5.56-1.34-9.56-3.78-12.46a11.62,11.62,0,0,0-9.35-4.23,12.36,12.36,0,0,0-9.56,4.23c-2.46,2.67-3.79,7.12-3.79,12.69Z"/>
              <path class="cls-3" d="M897.56,374.63v-5.56c-2.67,4.22-6.9,6.45-12.47,6.45a16.85,16.85,0,0,1-9.79-2.89,19.87,19.87,0,0,1-7.12-8.23,30.08,30.08,0,0,1-2.44-12.24,34,34,0,0,1,2.22-12,17.89,17.89,0,0,1,16.69-11.35,15.56,15.56,0,0,1,7.34,1.78,16.4,16.4,0,0,1,5.12,4.45V312.77h7.56v61.86Zm-24-22.25c0,5.56,1.34,10,3.78,12.68a10.87,10.87,0,0,0,8.46,4.23,10.64,10.64,0,0,0,8.46-4c2.45-2.67,3.56-6.9,3.56-12.46,0-6-1.11-10.46-3.56-13.35a11,11,0,0,0-17.13-.22c-2.45,2.67-3.56,7.12-3.56,13.13Z"/>
              <path class="cls-3" d="M947.4,360.17l7.79.89a18.1,18.1,0,0,1-6.9,10.68c-3.34,2.67-7.57,3.78-12.69,3.78-6.66,0-11.79-2-15.56-6s-5.79-9.57-5.79-16.91c0-7.57,2-13.35,5.79-17.58a20.06,20.06,0,0,1,15.12-6.23c6,0,10.9,2,14.68,6.23,3.79,4,5.57,9.79,5.57,17.13v2H922c.22,4.9,1.55,8.68,4.22,11.35a12,12,0,0,0,9.35,3.79,11.33,11.33,0,0,0,7.13-2.23c2-1.33,3.56-3.78,4.68-6.9Zm-24.92-12.23H947.4c-.23-3.78-1.34-6.67-2.89-8.46a11.84,11.84,0,0,0-9.35-4.45,11.1,11.1,0,0,0-8.68,3.56q-3.67,3.34-4,9.35Z"/>
              <polygon class="cls-3" points="1017.93 356.83 973.43 381.08 973.43 370.63 1008.59 351.93 973.43 333.69 973.43 323.24 1017.93 347.04 1017.93 356.83"/>
            </g>
          </g>
          <g id="Gears">
            <path class="cls-5" d="M235.19,284.07a55.74,55.74,0,0,1,17.13,14.24l21.36-7.79,12,33.15-21.36,7.79a47.87,47.87,0,0,1-.89,11.12,53.47,53.47,0,0,1-2.89,10.68L277.91,368l-22.69,26.92-17.36-14.46A56.06,56.06,0,0,1,216.95,388l-4,22.25-34.48-6,3.78-22.47a55.94,55.94,0,0,1-17.13-14.24L144,375.3l-12.23-33.16,21.36-7.79a64.1,64.1,0,0,1,.89-11.12,53.61,53.61,0,0,1,3.12-10.68l-17.59-14.69,22.71-26.92,17.35,14.68a55.62,55.62,0,0,1,20.92-7.78l4-22.25,34.71,6Z"/>
            <path class="cls-11" d="M469.26,211.1A81.78,81.78,0,0,1,480.16,242l32.71,6.23-9.57,50.5-32.71-6a89.7,89.7,0,0,1-9.34,13.35,81.29,81.29,0,0,1-11.79,11.35l10.89,31.37L411.63,366l-10.9-31.37a79.6,79.6,0,0,1-32-6l-21.8,25.14-39.16-33.6L329.53,295A81.75,81.75,0,0,1,318.63,264l-32.71-6,9.57-50.73,32.7,6A90.14,90.14,0,0,1,337.54,200a83.22,83.22,0,0,1,12-11.35l-11.13-31.37,48.73-17.13,10.9,31.37a85.53,85.53,0,0,1,32.26,6l21.58-25.14L491.06,186Z"/>
            <path class="cls-12" d="M211.83,315.67a17.5,17.5,0,0,1-6,34.49,17.51,17.51,0,1,1,6-34.49Zm2.89-16.91a34.68,34.68,0,1,1-40,28.25,34.63,34.63,0,0,1,40-28.25Z"/>
            <path class="cls-12" d="M416.3,233.57a25.71,25.71,0,1,1-36.49,2.67,25.72,25.72,0,0,1,36.49-2.67Zm16.24-18.91A50.73,50.73,0,1,1,360.9,220a50.71,50.71,0,0,1,71.64-5.34Z"/>
          </g>
        </g>
      </g>
    </g>
  </g>
</svg>
