<svg xmlns="http://www.w3.org/2000/svg" viewBox="0 0 696.97 663.4">
  <defs>
    <style>
      .cls-1 {
        isolation: isolate;
      }

      .cls-2 {
        fill: #003b4f;
      }

      .cls-3, .cls-5, .cls-8 {
        fill: #c7cb36;
      }

      .cls-4 {
        fill: #af3862;
      }

      .cls-10, .cls-4, .cls-5, .cls-6, .cls-7, .cls-8, .cls-9 {
        mix-blend-mode: multiply;
      }

      .cls-6 {
        fill: #ed2f24;
      }

      .cls-6, .cls-7, .cls-8, .cls-9 {
        fill-rule: evenodd;
      }

      .cls-7 {
        fill: #fbb017;
      }

      .cls-10, .cls-9 {
        fill: #f47e20;
      }
    </style>
  </defs>
  <title>Asset 1</title>
  <g class="cls-1">
    <g id="Layer_2" data-name="Layer 2">
      <g id="object">
        <g>
          <path class="cls-2" d="M369.72,663.4H78.44a7.5,7.5,0,0,1-7.5-7.5V558.58a7.5,7.5,0,0,1,7.5-7.5h92.69V452.2a7.5,7.5,0,1,1,15,0V558.58a7.5,7.5,0,0,1-7.5,7.5H85.94V648.4H362.22V534.65a7.5,7.5,0,0,1,7.5-7.5h86.13a7.5,7.5,0,0,1,7.5,7.5V639.82h62.12l-.72-312.61a7.5,7.5,0,0,1,7.48-7.52h0a7.5,7.5,0,0,1,7.5,7.48l.74,320.12a7.5,7.5,0,0,1-7.5,7.52H455.85a7.5,7.5,0,0,1-7.5-7.5V542.15H377.22V655.9A7.5,7.5,0,0,1,369.72,663.4Z"/>
          <g>
            <g>
              <path class="cls-2" d="M574.19,153.21c-4.12-2.29-11.24-2.49-17.71,4.49-2.62,2.82-4.79,7.3-6.59,12.71a57.77,57.77,0,0,1-9.28-1.28c4.51-3.25,5-6.9,4.84-8.71-.33-5.16-6.91-10.49-14.15-10.49s-13.81,5.34-14.14,10.49c-.11,1.81.33,5.46,4.84,8.71a57.84,57.84,0,0,1-9.28,1.28c-1.8-5.41-4-9.89-6.59-12.71-6.47-7-13.59-6.78-17.71-4.49-3.88,2.15-5.77,6.19-4.72,10.05a17.33,17.33,0,0,0,8.77,10.68,34.9,34.9,0,0,0,14.87,3.73c4.65,17.9,6.5,45,6.84,57a3.63,3.63,0,0,0,7.27-.21c-.13-4.58-1.18-35-6.66-56.93A62.74,62.74,0,0,0,528.24,175a31.27,31.27,0,0,0,3.07-1.15,31.59,31.59,0,0,0,3.07,1.15,62.75,62.75,0,0,0,13.46,2.55c-5.48,22-6.54,52.36-6.66,56.93a3.63,3.63,0,0,0,7.27.21c.34-12,2.18-39.12,6.84-57a34.91,34.91,0,0,0,14.87-3.73,17.32,17.32,0,0,0,8.77-10.68C580,159.4,578.07,155.36,574.19,153.21ZM496,167.57a10,10,0,0,1-5.25-6.21c-.15-.56.37-1.31,1.24-1.79,1.83-1,5.24-.82,8.86,3.08a24,24,0,0,1,4.21,7.56A25,25,0,0,1,496,167.57Zm35.34-2c-5.09-1.66-7-3.73-6.89-4.73s3.88-3.65,6.89-3.65,6.82,2.51,6.89,3.65S536.4,164,531.3,165.61Zm35.35,2a25,25,0,0,1-9,2.64,23.85,23.85,0,0,1,4.21-7.56c3.61-3.9,7-4.09,8.86-3.08.87.48,1.39,1.23,1.24,1.79A10,10,0,0,1,566.65,167.57Z"/>
              <path class="cls-3" d="M468.46,239.52a8.57,8.57,0,0,1-5.84-2.3,101,101,0,1,1,169.64-74,100,100,0,0,1-31.47,73.24A8.59,8.59,0,0,1,589,224a83,83,0,0,0,26.11-60.77,83.77,83.77,0,1,0-140.76,61.39,8.59,8.59,0,0,1-5.85,14.89Z"/>
              <path class="cls-2" d="M580.42,250.59A8.45,8.45,0,0,1,572,259H490.64a8.45,8.45,0,0,1-8.45-8.45h0a8.45,8.45,0,0,1,8.45-8.45H572a8.45,8.45,0,0,1,8.45,8.45Z"/>
              <path class="cls-2" d="M580.42,272.37a8.45,8.45,0,0,1-8.45,8.45H490.64a8.45,8.45,0,0,1-8.45-8.45h0a8.45,8.45,0,0,1,8.45-8.45H572a8.45,8.45,0,0,1,8.45,8.45Z"/>
              <path class="cls-2" d="M580.42,294.15A8.45,8.45,0,0,1,572,302.6H490.64a8.45,8.45,0,0,1-8.45-8.45h0a8.45,8.45,0,0,1,8.45-8.45H572a8.45,8.45,0,0,1,8.45,8.45Z"/>
              <path class="cls-2" d="M500.53,307.72v4.87a21.85,21.85,0,0,0,21.85,21.85h17.85a21.85,21.85,0,0,0,21.85-21.85v-4.87Z"/>
            </g>
            <path class="cls-3" d="M689.47,181.34h0l-33.95-.05a7.5,7.5,0,0,1,0-15h0l33.95.05a7.5,7.5,0,0,1,0,15Z"/>
            <path class="cls-3" d="M406.47,181.36h0l-34.9-.05a7.5,7.5,0,0,1,0-15h0l34.9.05a7.5,7.5,0,0,1,0,15Z"/>
            <path class="cls-3" d="M531.28,47h0a7.5,7.5,0,0,1-7.49-7.51l0-32A7.5,7.5,0,0,1,531.33,0h0a7.5,7.5,0,0,1,7.49,7.51l0,32A7.5,7.5,0,0,1,531.28,47Z"/>
            <path class="cls-3" d="M623.61,86.5a7.5,7.5,0,0,1-5.3-12.81l21.25-21.2a7.5,7.5,0,0,1,10.59,10.62l-21.25,21.2A7.48,7.48,0,0,1,623.61,86.5Z"/>
            <path class="cls-3" d="M436.69,96.08a7.47,7.47,0,0,1-5.3-2.19L410.21,72.76A7.5,7.5,0,0,1,420.8,62.14L442,83.27a7.5,7.5,0,0,1-5.3,12.81Z"/>
          </g>
          <g>
            <path class="cls-2" d="M236.46,515a58.52,58.52,0,0,1-12.57-1.37A58.21,58.21,0,0,1,178.34,453a58.18,58.18,0,0,1-66.19-25.41A58.2,58.2,0,0,1,87.88,314.07a57.87,57.87,0,0,1,1.1-7,58.13,58.13,0,0,1,69.35-44.3c1.43.31,2.85.68,4.25,1.1a58.17,58.17,0,0,1,77,6.7A58.18,58.18,0,0,1,319.22,321a58.2,58.2,0,0,1,24.32,92.34,58.18,58.18,0,0,1-50.2,87.5h0a58.5,58.5,0,0,1-12.57-1.37q-1.87-.41-3.72-1A58.09,58.09,0,0,1,236.46,515Zm-47.94-82.26a7.5,7.5,0,0,1,7.09,9.94,43.18,43.18,0,0,0,73.58,42.25,7.5,7.5,0,0,1,8.4-2.1,43.61,43.61,0,0,0,15.75,3A43.18,43.18,0,0,0,328,416.91a7.5,7.5,0,0,1,.88-9.92,43.18,43.18,0,0,0-18.94-73.22,7.5,7.5,0,0,1-5.64-7.56,43.17,43.17,0,0,0-63.24-39.86,7.5,7.5,0,0,1-9.45-2.08A43.15,43.15,0,0,0,169,277.92a7.5,7.5,0,0,1-7.61,1.34A43.18,43.18,0,0,0,102.62,320a7.5,7.5,0,0,1-6.15,7.45,43.19,43.19,0,1,0,17.88,84.48,7.5,7.5,0,0,1,8.52,4,43,43,0,0,0,29.6,23.44,43,43,0,0,0,32.08-5.5A7.5,7.5,0,0,1,188.52,432.75Z"/>
            <path class="cls-2" d="M128,248.9a7.5,7.5,0,0,1-6.41-3.59L99,208.29a7.5,7.5,0,1,1,12.8-7.82l22.62,37A7.5,7.5,0,0,1,128,248.9Z"/>
            <path class="cls-2" d="M237,242.16a7.51,7.51,0,0,1-7.4-8.8l7.56-43a7.5,7.5,0,1,1,14.77,2.6l-7.56,43A7.5,7.5,0,0,1,237,242.16Z"/>
            <path class="cls-2" d="M332.87,261.56l-10.39,11.08a7.5,7.5,0,1,1-10.94-10.26l30.09-32.08a7.5,7.5,0,0,1,10.94,10.26l-19.7,21"/>
            <path class="cls-2" d="M368.48,351.26a7.5,7.5,0,0,1-.72-15l42.68-4.19A7.5,7.5,0,0,1,411.9,347l-42.68,4.19Q368.85,351.26,368.48,351.26Z"/>
            <path class="cls-2" d="M41.52,319.41a7.47,7.47,0,0,1-3.31-.77l-34-16.76a7.5,7.5,0,1,1,6.63-13.46l34,16.76a7.5,7.5,0,0,1-3.32,14.23Z"/>
            <path class="cls-2" d="M11.79,455.8a7.5,7.5,0,0,1-3-14.4l34.86-14.94a7.5,7.5,0,1,1,5.91,13.79L14.74,455.19A7.47,7.47,0,0,1,11.79,455.8Z"/>
          </g>
          <path class="cls-4" d="M320.4,372.55a41.78,41.78,0,0,0-6.66-16.1l5.14-5.14L308,340.49l-5.13,5.13a41.72,41.72,0,0,0-16.1-6.66v-7.27H271.49V339a41.7,41.7,0,0,0-16.1,6.66l-5.14-5.13-10.83,10.83,5.13,5.14a41.73,41.73,0,0,0-6.67,16.09h-7.26v15.32h7.26a41.78,41.78,0,0,0,6.67,16.1l-5.13,5.13,10.83,10.83,5.14-5.13a41.72,41.72,0,0,0,16.1,6.66v7.27h15.32v-7.27a41.75,41.75,0,0,0,16.1-6.66l5.13,5.13,10.84-10.83L313.74,404a41.79,41.79,0,0,0,6.66-16.1h7.26V372.55Zm-41.26,35h0a27.3,27.3,0,0,1,0-54.6h0a27.3,27.3,0,0,1,0,54.6Z"/>
          <path class="cls-5" d="M286.62,306.56a15.15,15.15,0,0,0-2.42-5.84l1.86-1.86-3.93-3.93-1.86,1.86a15.15,15.15,0,0,0-5.84-2.42v-2.63h-5.56v2.63a15.13,15.13,0,0,0-5.84,2.42l-1.86-1.86-3.93,3.93,1.86,1.86a15.15,15.15,0,0,0-2.42,5.84h-2.63v5.56h2.63a15.16,15.16,0,0,0,2.42,5.84l-1.86,1.86,3.93,3.93,1.86-1.86a15.14,15.14,0,0,0,5.84,2.42v2.63h5.56v-2.63a15.15,15.15,0,0,0,5.84-2.42l1.86,1.86,3.93-3.93-1.86-1.86a15.16,15.16,0,0,0,2.42-5.84h2.63v-5.56Zm-15,14h0a11.24,11.24,0,0,1,0-22.47h0a11.24,11.24,0,1,1,0,22.47Z"/>
          <path class="cls-4" d="M151.92,396.57a15,15,0,0,0-.27-6.26L154,389.2l-2.33-5-2.37,1.1a15,15,0,0,0-4.62-4.23l.89-2.46-2.59-.94-2.59-.94-.89,2.46a15,15,0,0,0-6.26.28l-1.11-2.37-5,2.33,1.1,2.37a15,15,0,0,0-4.23,4.62l-2.46-.89-1.88,5.18,2.46.89a15.05,15.05,0,0,0,.28,6.26L120,399l2.33,5,2.37-1.11a15,15,0,0,0,4.62,4.23l-.89,2.46,2.59.94,2.59.94.89-2.46a15,15,0,0,0,6.26-.28l1.1,2.37,5-2.33-1.11-2.37a15,15,0,0,0,4.23-4.62l2.46.89,1.88-5.18Zm-18.71,8h0a11.15,11.15,0,0,1,7.62-21h0a11.15,11.15,0,0,1-7.62,21Z"/>
          <path class="cls-6" d="M219.18,379.09l4.72-2.83a34.68,34.68,0,0,0-9.09-10l-3.28,4.43a29.17,29.17,0,0,0-10.28-4.86l1.34-5.35a34.58,34.58,0,0,0-13.5-.65l.81,5.45A29.09,29.09,0,0,0,181,368.1q-.92.47-1.8,1l-2.83-4.72a34.69,34.69,0,0,0-10,9.09l4.43,3.28A29.19,29.19,0,0,0,165.92,387l-5.34-1.33a34.55,34.55,0,0,0-.65,13.5l5.45-.81a29,29,0,0,0,3.83,10.7l-4.72,2.83a34.69,34.69,0,0,0,9.09,10l3.28-4.43a29.15,29.15,0,0,0,10.28,4.86l-1.34,5.34a34.59,34.59,0,0,0,13.5.65l-.81-5.45a29.09,29.09,0,0,0,8.91-2.83q.92-.47,1.8-1L212,423.8a34.68,34.68,0,0,0,10-9.09l-4.43-3.28a29.17,29.17,0,0,0,4.86-10.28l5.34,1.33a34.55,34.55,0,0,0,.65-13.5l-5.45.81A29,29,0,0,0,219.18,379.09Zm-11,12.92a14.11,14.11,0,1,1-16-11.87A14.11,14.11,0,0,1,208.15,392Z"/>
          <path class="cls-7" d="M269.58,451.38l5.76-.41a36.34,36.34,0,0,0-3.74-13.66l-5.16,2.58a30.55,30.55,0,0,0-7.29-9.42l3.78-4.36a36.2,36.2,0,0,0-12.3-7l-1.83,5.47a30.46,30.46,0,0,0-9.66-1.58q-1.08,0-2.15.08l-.41-5.75a36.35,36.35,0,0,0-13.66,3.74l2.58,5.16a30.57,30.57,0,0,0-9.42,7.29l-4.36-3.78a36.2,36.2,0,0,0-7,12.3l5.47,1.83a30.4,30.4,0,0,0-1.5,11.81l-5.76.41a36.35,36.35,0,0,0,3.74,13.66l5.16-2.58a30.56,30.56,0,0,0,7.29,9.42l-3.78,4.36a36.19,36.19,0,0,0,12.3,7l1.83-5.47a30.46,30.46,0,0,0,9.66,1.58q1.08,0,2.15-.08l.41,5.75A36.35,36.35,0,0,0,255.35,486l-2.58-5.16a30.54,30.54,0,0,0,9.42-7.29l4.36,3.78a36.21,36.21,0,0,0,7-12.3l-5.47-1.83A30.4,30.4,0,0,0,269.58,451.38Zm-16.44,6.83a14.78,14.78,0,1,1-9.34-18.69A14.78,14.78,0,0,1,253.15,458.21Z"/>
          <path class="cls-8" d="M324.66,444.78l4-.82a25.86,25.86,0,0,0-3.91-9.29l-3.4,2.3a21.74,21.74,0,0,0-6-6l2.26-3.43a25.76,25.76,0,0,0-9.33-3.8l-.78,4a21.67,21.67,0,0,0-7-.21q-.76.1-1.51.25l-.82-4a25.89,25.89,0,0,0-9.29,3.91l2.3,3.4a21.76,21.76,0,0,0-6,6l-3.43-2.26a25.78,25.78,0,0,0-3.8,9.33l4,.78a21.64,21.64,0,0,0,0,8.47l-4,.82A25.87,25.87,0,0,0,282,463.6l3.4-2.3a21.73,21.73,0,0,0,6,6l-2.26,3.43a25.77,25.77,0,0,0,9.33,3.8l.78-4a21.71,21.71,0,0,0,7,.21q.76-.1,1.51-.25l.82,4a25.9,25.9,0,0,0,9.29-3.91l-2.3-3.4a21.73,21.73,0,0,0,6-6l3.43,2.26a25.76,25.76,0,0,0,3.8-9.33l-4-.78A21.64,21.64,0,0,0,324.66,444.78Zm-11,6.35a10.52,10.52,0,1,1-8.33-12.32A10.52,10.52,0,0,1,313.7,451.13Z"/>
          <path class="cls-7" d="M117.2,366.32l4.17-.29a26.31,26.31,0,0,0-2.71-9.89L114.92,358a22.11,22.11,0,0,0-5.28-6.82l2.74-3.16a26.2,26.2,0,0,0-8.91-5.08l-1.32,4a22,22,0,0,0-7-1.14c-.52,0-1,0-1.56.06l-.29-4.17a26.3,26.3,0,0,0-9.89,2.71l1.87,3.74a22.12,22.12,0,0,0-6.82,5.28l-3.15-2.74a26.21,26.21,0,0,0-5.08,8.91l4,1.32a22,22,0,0,0-1.09,8.55l-4.17.29a26.31,26.31,0,0,0,2.71,9.89l3.74-1.87a22.12,22.12,0,0,0,5.28,6.82l-2.74,3.16a26.21,26.21,0,0,0,8.91,5.08l1.32-4a22,22,0,0,0,7,1.14q.78,0,1.56-.06l.29,4.17a26.32,26.32,0,0,0,9.89-2.71L105,387.64a22.11,22.11,0,0,0,6.82-5.28L115,385.1a26.21,26.21,0,0,0,5.08-8.91l-4-1.32A22,22,0,0,0,117.2,366.32Zm-12.93,4.6a9.61,9.61,0,1,1-6.07-12.16A9.62,9.62,0,0,1,104.28,370.92Z"/>
          <path class="cls-6" d="M247,315.76l4.79-.74a30.49,30.49,0,0,0-4.09-11.16l-4.14,2.52a25.66,25.66,0,0,0-6.76-7.37l2.86-3.91a30.38,30.38,0,0,0-10.78-5l-1.14,4.71a25.58,25.58,0,0,0-8.19-.64q-.9.08-1.79.21l-.74-4.78a30.5,30.5,0,0,0-11.16,4.08l2.52,4.14a25.71,25.71,0,0,0-7.37,6.76l-3.91-2.86a30.41,30.41,0,0,0-5,10.78l4.71,1.14a25.51,25.51,0,0,0-.43,10l-4.79.74a30.52,30.52,0,0,0,4.09,11.16l4.14-2.52a25.65,25.65,0,0,0,6.76,7.37l-2.86,3.91a30.38,30.38,0,0,0,10.78,5l1.14-4.71a25.61,25.61,0,0,0,8.19.64q.9-.08,1.79-.22l.74,4.78a30.5,30.5,0,0,0,11.16-4.08L235,341.58a25.66,25.66,0,0,0,7.37-6.76l3.91,2.86a30.43,30.43,0,0,0,5-10.78l-4.71-1.15A25.5,25.5,0,0,0,247,315.76Zm-13.27,6.86a12.41,12.41,0,1,1-9.12-15A12.41,12.41,0,0,1,233.71,322.63Z"/>
          <path class="cls-9" d="M199.7,285.33l2-.14a12.66,12.66,0,0,0-1.3-4.76l-1.8.9a10.66,10.66,0,0,0-2.54-3.28l1.32-1.52a12.62,12.62,0,0,0-4.29-2.44l-.64,1.91a10.62,10.62,0,0,0-3.37-.55l-.75,0-.14-2a12.67,12.67,0,0,0-4.76,1.3l.9,1.8a10.67,10.67,0,0,0-3.28,2.54l-1.52-1.32a12.63,12.63,0,0,0-2.44,4.29l1.91.64a10.58,10.58,0,0,0-.52,4.12l-2,.14a12.67,12.67,0,0,0,1.3,4.76l1.8-.9a10.66,10.66,0,0,0,2.54,3.28l-1.32,1.52a12.61,12.61,0,0,0,4.29,2.44l.64-1.91a10.62,10.62,0,0,0,3.37.55l.75,0,.14,2a12.68,12.68,0,0,0,4.76-1.3l-.9-1.8a10.65,10.65,0,0,0,3.28-2.54l1.52,1.32a12.64,12.64,0,0,0,2.44-4.29l-1.91-.64A10.59,10.59,0,0,0,199.7,285.33ZM194,287.71a5.15,5.15,0,1,1-3.25-6.51A5.15,5.15,0,0,1,194,287.71Z"/>
          <g>
            <path class="cls-10" d="M182.12,321.87a34,34,0,0,0-5.59-13l4.12-4.23-8.92-8.69-4.12,4.23a33.92,33.92,0,0,0-13.16-5.25l-.08-5.91-6.23.08-6.23.08.08,5.91a33.91,33.91,0,0,0-13,5.59l-4.23-4.12-8.69,8.92,4.23,4.12A33.94,33.94,0,0,0,115,322.75l-5.9.08.16,12.46,5.9-.08a34,34,0,0,0,5.59,13l-4.12,4.23,8.92,8.69,4.12-4.23a33.89,33.89,0,0,0,13.16,5.25l.08,5.91,6.23-.08,6.23-.08-.08-5.91a34,34,0,0,0,13-5.59l4.23,4.12,8.69-8.92L177,347.48a34,34,0,0,0,5.25-13.16l5.9-.08L188,321.79ZM149,353.73h0a25.19,25.19,0,0,1-.66-50.38h0a25.19,25.19,0,0,1,.66,50.38Z"/>
            <path class="cls-10" d="M148.89,345.45h0a16.92,16.92,0,1,1-.44-33.83h0a16.92,16.92,0,0,1,.44,33.83Z"/>
          </g>
        </g>
        <path class="cls-7" d="M247.94,455.88a7.45,7.45,0,1,1-4.7-9.42A7.45,7.45,0,0,1,247.94,455.88Z"/>
      </g>
    </g>
  </g>
</svg>
