<svg xmlns="http://www.w3.org/2000/svg" viewBox="0 0 579.41 476.23">
  <defs>
    <style>
      .cls-1 {
        fill: #eacebf;
      }

      .cls-1, .cls-10, .cls-11, .cls-12, .cls-13, .cls-14, .cls-15, .cls-16, .cls-17, .cls-18, .cls-19, .cls-2, .cls-20, .cls-21, .cls-22, .cls-23, .cls-24, .cls-25, .cls-26, .cls-27, .cls-3, .cls-30, .cls-31, .cls-32, .cls-35, .cls-36, .cls-37, .cls-38, .cls-4, .cls-40, .cls-43, .cls-44, .cls-45, .cls-46, .cls-47, .cls-48, .cls-49, .cls-50, .cls-51, .cls-53, .cls-54, .cls-55, .cls-57, .cls-6, .cls-61, .cls-62, .cls-63, .cls-64, .cls-65, .cls-66, .cls-69, .cls-7, .cls-8, .cls-9 {
        fill-rule: evenodd;
      }

      .cls-2 {
        fill: #deb936;
      }

      .cls-3 {
        fill: #e0bead;
      }

      .cls-4 {
        fill: #242829;
      }

      .cls-5 {
        fill: #272525;
      }

      .cls-6 {
        fill: #434345;
      }

      .cls-7 {
        fill: #353436;
      }

      .cls-8 {
        fill: #302f30;
      }

      .cls-9 {
        fill: #484749;
      }

      .cls-10 {
        fill: #222627;
      }

      .cls-11 {
        fill: #f0d0bf;
      }

      .cls-12 {
        fill: #eac5af;
      }

      .cls-13, .cls-68 {
        fill: #796a53;
      }

      .cls-14 {
        fill: #73624a;
      }

      .cls-15 {
        fill: #3f474e;
      }

      .cls-16 {
        fill: #39424b;
      }

      .cls-17 {
        fill: #525354;
      }

      .cls-18 {
        fill: #686867;
      }

      .cls-19 {
        fill: #a08a6c;
      }

      .cls-20 {
        fill: #49535a;
      }

      .cls-21 {
        fill: #434c54;
      }

      .cls-22 {
        fill: #434f59;
      }

      .cls-23 {
        fill: #f1c930;
      }

      .cls-24, .cls-42 {
        fill: #59595b;
      }

      .cls-25 {
        fill: #ccc;
      }

      .cls-26, .cls-34 {
        fill: #a5a7a9;
      }

      .cls-27, .cls-41 {
        fill: #424243;
      }

      .cls-28 {
        fill: #808082;
      }

      .cls-29 {
        fill: #8b8b8c;
      }

      .cls-30 {
        fill: #6d6e70;
      }

      .cls-31 {
        fill: #d4b338;
      }

      .cls-32 {
        fill: #3b3b3c;
      }

      .cls-33, .cls-38 {
        fill: #babcbe;
      }

      .cls-35 {
        fill: #cae2ec;
      }

      .cls-36, .cls-59 {
        fill: #e5e6e7;
      }

      .cls-37 {
        fill: #d6ac95;
      }

      .cls-39 {
        fill: #cfd0d2;
      }

      .cls-40 {
        fill: #7c6b54;
      }

      .cls-43 {
        fill: #919395;
      }

      .cls-44 {
        fill: #aaaaad;
      }

      .cls-45 {
        fill: #38383a;
      }

      .cls-46 {
        fill: #504e69;
      }

      .cls-47 {
        fill: #1f3b4f;
      }

      .cls-48 {
        fill: #24485e;
      }

      .cls-49 {
        fill: #d0b3a4;
      }

      .cls-50 {
        fill: #434343;
      }

      .cls-51 {
        fill: #7f8083;
      }

      .cls-52 {
        fill: #545557;
      }

      .cls-53 {
        fill: #9b6063;
      }

      .cls-54 {
        fill: #6da3ab;
      }

      .cls-55 {
        fill: #8f5744;
      }

      .cls-56 {
        fill: #a8908d;
      }

      .cls-57 {
        fill: #e19c6a;
      }

      .cls-58 {
        fill: #9a653b;
      }

      .cls-60 {
        fill: #81c3cd;
      }

      .cls-61 {
        fill: #718e8c;
      }

      .cls-62 {
        fill: #da814a;
      }

      .cls-63 {
        fill: #c5a96a;
      }

      .cls-64 {
        fill: #745769;
      }

      .cls-65 {
        fill: #7a6b64;
      }

      .cls-66 {
        fill: #da8267;
      }

      .cls-67 {
        fill: #b36c3e;
      }

      .cls-69 {
        fill: #9d896c;
      }

      .cls-70 {
        fill: #59584d;
      }
    </style>
  </defs>
  <title>Asset 1</title>
  <g id="Layer_2" data-name="Layer 2">
    <g id="objects">
      <g id="character">
        <path id="_Path_" data-name="&lt;Path&gt;" class="cls-1" d="M66.58,202.92c5.84,0,112.25,2.5,114.89,1.14S197,196.95,195,197.33s16.7-1.34,16.7-1.34,24,15.46,27.27,15.39c6.43-.14-10.46,2-19.12,6.26.95.64-8.78-1.54-21.8-.15-4.86.52-12.06-.18-12.92-.13s-105.94,13.1-105.94,13.1Z"/>
        <path id="_Path_2" data-name="&lt;Path&gt;" class="cls-2" d="M33,160.68c-3.64,9.86-4.14,22.82,2.65,28.75,9.29,8.12,50.73,40.39,63.29,45.49,0,0,8.13.92,23-27.28,0,0-32.7-27.29-60.91-45.93C51.09,155.13,36.6,150.93,33,160.68Z"/>
        <path id="_Path_3" data-name="&lt;Path&gt;" class="cls-3" d="M226,193.36c1.22-.71,10.71-6.47,11-6.48s11.8-3.66,12.31-3.51c.87.26,14.38,11.53,13.87,12.13-.16.19-5.06,1.48-6.53.86-4-1.68-7.39-7-9.18-7.47-2.44-.61-7.72,1.12-9.3.76S226,193.36,226,193.36Z"/>
        <g id="_Group_" data-name="&lt;Group&gt;">
          <path id="_Path_4" data-name="&lt;Path&gt;" class="cls-4" d="M270.06,215.42h0a.32.32,0,0,1-.45-.1l-.93-1.43a.32.32,0,0,1,.1-.45.32.32,0,0,1,.45.1l.92,1.43A.33.33,0,0,1,270.06,215.42Z"/>
          <ellipse id="_Path_5" data-name="&lt;Path&gt;" class="cls-5" cx="241.21" cy="170.6" rx="0.92" ry="1.54" transform="translate(-53.97 158.14) rotate(-32.85)"/>
          <path id="_Path_6" data-name="&lt;Path&gt;" class="cls-6" d="M269.87,213.77c-.19-.77-.88-3.45-1-3.67a11.94,11.94,0,0,0-.71-1.47c-.44-.78-.76-.79-3.62-5.41s-19-29.14-20-30.68-1-1.89-1.63-2.23-.72-.27-1-.1l-.76.45-.72.51c-.27.19-.37.24-.32,1s.37.87,1.36,2.4,16.68,26.36,19.72,30.87,2.91,4.8,3.44,5.52a12.46,12.46,0,0,0,1,1.25c.16.18,2.32,1.91,2.94,2.4Z"/>
          <path id="_Path_7" data-name="&lt;Path&gt;" class="cls-7" d="M264,205.28l-.71.46a.46.46,0,0,1-.63-.14l-6.51-10.08a.46.46,0,0,1,.14-.63l.71-.45a.46.46,0,0,1,.63.13l6.51,10.08A.46.46,0,0,1,264,205.28Z"/>
          <path id="_Path_8" data-name="&lt;Path&gt;" class="cls-8" d="M262.67,205.59a.46.46,0,0,0,.63.14l.36-.23-7-10.85-.35.23a.46.46,0,0,0-.14.63Z"/>
          <path id="_Path_9" data-name="&lt;Path&gt;" class="cls-9" d="M263.3,205.73a.46.46,0,0,1-.63-.14l-6.51-10.08a.46.46,0,0,1,.14-.63l.35-.23-15.49-24-.72.51c-.27.19-.37.24-.32,1s.37.87,1.36,2.4,16.68,26.36,19.72,30.87,2.91,4.8,3.44,5.52a12.46,12.46,0,0,0,1,1.25c.16.18,2.32,1.91,2.94,2.4l.34-.22.27-.18-.47-.72-5.13-7.94Z"/>
          <path id="_Path_10" data-name="&lt;Path&gt;" class="cls-10" d="M269.25,214.17l-.27.18.63,1a.33.33,0,0,0,.45.1Z"/>
        </g>
        <path id="_Path_11" data-name="&lt;Path&gt;" class="cls-11" d="M33.54,86.08c2.32,17.58,5.52,18.54.82,42.06,0,0,30.62,14.78,30.41,13.72-2.27-11.35,3.11-12,5.51-33.19Z"/>
        <path id="_Path_12" data-name="&lt;Path&gt;" class="cls-11" d="M118,39.46c1,3.17,8.43,18.16,7.06,21.75s-5.88,15.2-5.88,15.2,7.84,15.86,9.41,17.76-11.1,3.53-11.18,3.57,1.07,4.1.61,7.05c-1,6.14-14.07,18.64-18.64,20.16-5,1.67-40.4-6-43.34-10.64S44.46,96.78,44.46,96.78l.2-4.43c1-23.49,8.11-44.59,11.37-69.89Z"/>
        <path id="_Path_13" data-name="&lt;Path&gt;" class="cls-12" d="M119.25,85.68c-.39.21-1.15,5.93-5.86,8.08-3.25,1.48-10.15,1.63-12.94-4.42C98,84.1,98.93,74.4,98.93,74.4L61.6,68.06l-1-4.4,53.52,8Z"/>
        <path id="_Path_14" data-name="&lt;Path&gt;" class="cls-3" d="M128.59,94.17c1.57,1.9-11.1,3.53-11.18,3.57s0,0,0,.06c-3.75-1.42-2.93-.48-4.25-4.79,0,0,3.91,2.34,4.17,2.54A90.8,90.8,0,0,0,128.59,94.17Z"/>
        <path id="_Path_15" data-name="&lt;Path&gt;" class="cls-12" d="M108.32,118.32c-3.46,3.31-7,6-8.94,6.63-5,1.67-40.4-6-43.34-10.64S44.46,96.78,44.46,96.78l.1-2.22S59.26,112.88,60,113.29s30.49,7.83,35.77,8.54C99.07,122.28,104.74,120.11,108.32,118.32Z"/>
        <path id="_Path_16" data-name="&lt;Path&gt;" class="cls-13" d="M69.64,89c-9.93-5.17-9.52-11.55-15.28-21.43,0,0-4.91-6.47-14-1.23s-9.73,15.94-5.84,21.16,7.88,12.11,7.88,12.11,1.32,1.73,2,6.33-4.08,10.46-4.08,10.46.28-9.76.3-9.38-5.74,11.2-5.74,11.2l.93-9.74s-7,10.2-5.56,7.21.16-17.95-5.87-25.6C10.89,73,2.14,45.77,22.62,30c0,0-5.48-5.39-4.37-5.12s6.46,1.83,6.46,1.83a10.22,10.22,0,0,1,.67-7.14,38.75,38.75,0,0,1,5.89-7.9c-4.48,9.81-2.93,10.67-2.93,10.67s1.56-10,24.11-19.22C82.61-9.32,109,19.94,138.93,18c-8.28,28.28-56.44,33.59-73,28-1.89-.64-7.73,7-7.41,8.29C61.39,65.62,63.26,81.18,69.64,89Z"/>
        <path id="_Path_17" data-name="&lt;Path&gt;" class="cls-14" d="M33.82,73.22c-2.47,5.06-1.86,10.85.69,14.28,3.89,5.23,7.88,12.11,7.88,12.11s1.32,1.73,2,6.33-4.08,10.46-4.08,10.46.28-9.76.3-9.38-5.74,11.2-5.74,11.2l.93-9.74s-7,10.2-5.56,7.21.16-17.95-5.87-25.6A71,71,0,0,1,13.68,71.27c5,9.78,11.11,16.83,17,25.32.56.81,6,9.35,6.07,9.8s.78-5.8-5.46-12.65c2,1.31,10,9.38,10.37,11.28.1.51-.15-2-2.59-6.5S31.45,87.4,29.93,80,31,72.25,32.26,71C32.26,71,32.74,71.76,33.82,73.22Z"/>
        <path id="_Path_18" data-name="&lt;Path&gt;" class="cls-14" d="M69.64,89c-9.93-5.17-9.52-11.55-15.28-21.43A7.81,7.81,0,0,0,53,66.28C51.28,57,52.81,52,54.92,49.3,57.25,46.35,62.74,44,62.74,44l-5.69-5.39c18.55,4.69,38.85,2.29,57.6-.09a46.25,46.25,0,0,1-25.74-7.06c28.19,2.05,39.86-4.89,40.5-5.35,0,0-19,.69-31.61-4.37-.51-.2,8.33.71,18.09-.2s23-3.58,23-3.58c-8.28,28.28-56.44,33.59-73,28-1.89-.64-7.73,7-7.41,8.29C61.39,65.62,63.26,81.18,69.64,89Z"/>
        <path id="_Path_19" data-name="&lt;Path&gt;" class="cls-15" d="M186.33,327.82c-.34.09,44.45,12.91,44.45,12.91,20.63,22.56,28.82,63.33,41.16,93.1,7.22,17.42,10.36,23.3,11.17,23.09,7.85-2,37-41.92,36-43.09L232.7,316.47Z"/>
        <path id="_Path_20" data-name="&lt;Path&gt;" class="cls-16" d="M278.19,450c2.33,5.21,3.86,8.26,4.2,8.11,6.13-2.62,39.88-26.19,46.61-36.25-3.89-1.28-11.52-4.88-11.52-4.88S279.71,449.44,278.19,450Z"/>
        <path id="_Path_21" data-name="&lt;Path&gt;" class="cls-17" d="M319.9,386.43c4.88.81,10.57,6.1,21.55,1.42s31.3-29.47,37.19-29.68,5.69,1.63,7.72,7.93-41.26,76.63-42.48,75.82-30.14-19.82-30.14-19.82Z"/>
        <path id="_Path_22" data-name="&lt;Path&gt;" class="cls-18" d="M327.1,388.85c3.63,1.11,8.15,1.65,14.35-1,6.85-2.92,17.33-13.67,25.68-21.39a8.13,8.13,0,0,1-.25,5.44c-1.42,2.85-5.39,17.58-16,22.87s-26.09,1.44-26.09,1.44l2.26-7.37Z"/>
        <path id="_Path_23" data-name="&lt;Path&gt;" class="cls-19" d="M379.05,358.17c28.82-.83-29.87,81.22-36.69,88.32a51.66,51.66,0,0,1-4.48-3.58s14.84-22.76,25.61-41.06,15.24-39.33,15.14-41.26A6.94,6.94,0,0,1,379.05,358.17Z"/>
        <path id="_Path_24" data-name="&lt;Path&gt;" class="cls-20" d="M73.75,292.08c1.22,6.5,4.07,18.29,15.45,24.8S231.48,330.7,231.48,330.7s46.67,62.47,74.65,86c6.72,5.65,7.37,5.85,7.61,5.38,1.22-2.44,28.48-40.42,26-41.64-8.37-4.18-64-55.37-77-67.39-11.9-11-14.78-15.94-33.86-18.75-19.64-2.9-93.82-12.89-98.66-13.22C124.16,280.7,73.75,292.08,73.75,292.08Z"/>
        <path id="_Path_25" data-name="&lt;Path&gt;" class="cls-21" d="M98.61,291.35l.58.48c3.13,2.6,14.62,12.14,30.22,14.74,5.94,1,16.16.93,28.11.86,22.11-.12,50.08-.28,68.42,6.09,28.31,9.85,98.52,85.69,98.72,85.91l-1.58,1.47c-.2-.22-70.06-75.68-97.85-85.34-18-6.26-45.75-6.1-67.7-6-12.05.07-22.37.13-28.47-.89-16.18-2.7-28-12.54-31.25-15.22l-.55-.45Z"/>
        <path id="_Path_26" data-name="&lt;Path&gt;" class="cls-22" d="M307.79,418.11c5.18,4.3,5.74,4.42,6,4,1.22-2.44,28.48-40.42,26-41.64a27.69,27.69,0,0,1-3.54-2.37c-3.84,6.3-14.44,23.49-19.75,29.93C313,412.32,309.87,415.81,307.79,418.11Z"/>
        <path id="_Path_27" data-name="&lt;Path&gt;" class="cls-23" d="M61.33,138.84c-7.76-8-21.22-10.51-23.76-11-3.69-.7-4.68-1.83-6.5-1.22-.39.13-.72.88-2.87,3-.32.32,3,.26,2,1.63-1.76,2.46-8,8.11-9.21,16.46-1.65,11.85,2,15.63,4.79,40.25,4.06,35.37,15.85,81.71,33.33,106.1s10.16,25.2,11.79,22.36S88,302.65,100.18,299s52.16-15.18,52.16-15.18-23.7-12.87-36.71-27.51C94.44,232.47,71,148.78,61.33,138.84Z"/>
        <path id="_Path_28" data-name="&lt;Path&gt;" class="cls-24" d="M316.62,434.08l6.52-5.8c-.33.38,17.24,5.7,23,5.56,20.31-.5,49.35-.3,52.8,4s3,12.2-.61,15.65S308,477.25,307.44,475.82s-13-25.13-13-25.13Z"/>
        <path id="_Path_29" data-name="&lt;Path&gt;" class="cls-18" d="M314.77,435.6l5.11-4.42h0l3.26-2.9c-.33.38,17.24,5.7,23,5.56,12.14-.3,27.38-.35,38.43.57-1.6,3.67-11.85,5.58-19.38,7.31C353.27,444.45,321.19,439,314.77,435.6Z"/>
        <g id="_Group_2" data-name="&lt;Group&gt;">
          <polygon id="_Path_30" data-name="&lt;Path&gt;" class="cls-25" points="301.81 211.63 307.21 211.37 307.73 214.75 301.61 215.04 301.81 211.63"/>
          <polygon id="_Path_31" data-name="&lt;Path&gt;" class="cls-25" points="309.6 211.26 315.01 211 315.52 214.38 309.41 214.67 309.6 211.26"/>
          <polygon id="_Path_32" data-name="&lt;Path&gt;" class="cls-25" points="317.39 210.89 322.8 210.63 323.31 214.01 317.2 214.3 317.39 210.89"/>
          <polygon id="_Path_33" data-name="&lt;Path&gt;" class="cls-25" points="325.19 210.52 330.59 210.26 331.11 213.64 325 213.93 325.19 210.52"/>
          <polygon id="_Path_34" data-name="&lt;Path&gt;" class="cls-25" points="332.98 210.15 338.39 209.89 338.9 213.27 332.79 213.56 332.98 210.15"/>
          <polygon id="_Path_35" data-name="&lt;Path&gt;" class="cls-25" points="340.78 209.78 346.18 209.52 346.7 212.9 340.58 213.19 340.78 209.78"/>
          <polygon id="_Path_36" data-name="&lt;Path&gt;" class="cls-25" points="348.57 209.4 353.98 209.15 354.49 212.53 348.38 212.82 348.57 209.4"/>
          <path id="_Path_37" data-name="&lt;Path&gt;" class="cls-26" d="M297.23,215.62a1.72,1.72,0,0,1,1.64-1.8l63.28-3a1.73,1.73,0,0,1,1.8,1.64l.05,1.11a1.72,1.72,0,0,1-1.64,1.8l-63.28,3a1.72,1.72,0,0,1-1.8-1.64Z"/>
          <path id="_Path_38" data-name="&lt;Path&gt;" class="cls-26" d="M359.15,213.58l1.68-.24,0,1.93-.32,3.09h-1.28S359.18,213.58,359.15,213.58Z"/>
        </g>
        <path id="_Path_39" data-name="&lt;Path&gt;" class="cls-27" d="M221.74,215.7h94.31a1.94,1.94,0,0,1,1.93,1.93h0a1.94,1.94,0,0,1-1.93,1.93H221.74a1.94,1.94,0,0,1-1.93-1.93h0A1.94,1.94,0,0,1,221.74,215.7Z"/>
        <path id="_Path_40" data-name="&lt;Path&gt;" class="cls-11" d="M99.89,174.37l30,20.07s85.63.47,87.44-1.11c.79-.5,25.5-9.92,25.89-9.92,1.42,0,15.2,9.28,15.91,10S266.8,204,268,206s1.16,3-.13,3.49-3.29-.65-5.29-1.87A16,16,0,0,1,260,205.8a2.62,2.62,0,0,1-.45,3.23c-1.55,1.29-2.58.84-2.58.84a2.41,2.41,0,0,1-1.48,2.32,5,5,0,0,1-3,0s0,1.42-3.1,1.81-9.23-2.58-9.23-2.58-3.71,4.42-12.75,3.78c-5-.36-11.92-4.16-11.92-4.16l-93.4,7.06s-41.07-24.77-39.26-27.25S99.89,174.37,99.89,174.37Z"/>
        <path id="_Path_41" data-name="&lt;Path&gt;" class="cls-12" d="M268.9,208.07a1.3,1.3,0,0,1-1,1.41c-1.29.52-3.29-.65-5.29-1.87A16,16,0,0,1,260,205.8a2.62,2.62,0,0,1-.45,3.23c-1.55,1.29-2.58.84-2.58.84a2.41,2.41,0,0,1-1.48,2.32,5,5,0,0,1-3,0s0,1.42-3.1,1.81-9.23-2.58-9.23-2.58-3.71,4.42-12.75,3.78c-5-.36-11.31-3.45-11.31-3.45l-94,6.35S111,211.4,100.65,204.63L102.8,199s16.87,14.43,26,15.24,87.76-5.08,87.76-5.08c3.62,4.39,14.84,7.26,22.36,2.24,1.29-.86-.05-3.81-.05-3.81s1.38,2.19,2.08,3.2,10.36,3.67,10.16,1.07c0-.47-9.73-11.72-11.36-13.82-.26-.33.17-.51.36-.3l12.32,13.68a6.74,6.74,0,0,0,2.19.14,1.57,1.57,0,0,0,1.27-2.29c-.53-1.3-12.91-13.32-11.84-12.91s12.68,12.72,13.54,12.57,2.5-1.7,1.93-2.38c-3-3.55-10.51-10.6-9.4-11.09C250.55,195.26,262.88,211.56,268.9,208.07Z"/>
        <g id="_Group_3" data-name="&lt;Group&gt;">
          <rect id="_Path_42" data-name="&lt;Path&gt;" class="cls-28" x="127.62" y="338.1" width="13.28" height="71"/>
          <rect id="_Path_43" data-name="&lt;Path&gt;" class="cls-29" x="134.26" y="338.1" width="6.64" height="71"/>
        </g>
        <path id="_Path_44" data-name="&lt;Path&gt;" class="cls-27" d="M123.76,399.36h21v47.45l48.7,8.32c3.3.56,6.09,2.74,6.09,6.09h0c0,3.35-2.79,6.65-6.09,6.09l-53.12-9.07H128.18l-53.12,9.07c-3.3.56-6.09-2.74-6.09-6.09h0c0-3.35,2.79-5.52,6.09-6.09l48.7-8.32Z"/>
        <path id="_Path_45" data-name="&lt;Path&gt;" class="cls-27" d="M74.42,475.82a8.16,8.16,0,1,0-8.16-8.16A8.18,8.18,0,0,0,74.42,475.82Z"/>
        <path id="_Path_46" data-name="&lt;Path&gt;" class="cls-27" d="M193.47,475.82a8.16,8.16,0,1,0-8.16-8.16A8.18,8.18,0,0,0,193.47,475.82Z"/>
        <path id="_Path_47" data-name="&lt;Path&gt;" class="cls-27" d="M134,475.82a8.16,8.16,0,1,0-8.16-8.16A8.18,8.18,0,0,0,134,475.82Z"/>
        <path id="_Path_48" data-name="&lt;Path&gt;" class="cls-30" d="M88.06,340.27H191.95a8,8,0,0,1,7.93,7.93h0a8,8,0,0,1-7.93,7.93H88.06a8,8,0,0,1-7.93-7.93h0A8,8,0,0,1,88.06,340.27Z"/>
        <path id="_Path_49" data-name="&lt;Path&gt;" class="cls-31" d="M32.43,120.94c5.59,1.21,34.89,14,37.64,17.53S75,153,75,153c-3.95-2-30-17.47-47.4-20C26.59,132.84,29.37,122,32.43,120.94Z"/>
        <path id="_Path_50" data-name="&lt;Path&gt;" class="cls-23" d="M35.44,143.81c-3.64,9.86-4.14,22.82,2.64,28.75,9.29,8.12,50.73,40.39,63.29,45.49,0,0,8.13.92,23-27.28,0,0-32.7-27.29-60.91-45.93C53.53,138.26,39,134.06,35.44,143.81Z"/>
        <path id="_Path_51" data-name="&lt;Path&gt;" class="cls-31" d="M33.11,153.4c-.93,7.52.26,15,5,19.16,9.29,8.12,50.73,40.39,63.29,45.49,0,0,8.13.92,23-27.28,0,0-11.11,18.09-17.62,19.92s-59-34.63-66.47-43.29C33,158.93,33.1,153.64,33.11,153.4Z"/>
        <path id="_Path_52" data-name="&lt;Path&gt;" class="cls-27" d="M17.49,120.94C-31.93,85.39,37.81,292.25,50,330.54c9,28.24,160.36,20.61,174.36,18,6.81-1.26,11.35-9.88,3-19.5C220,320.62,116.65,323,100.44,318.27S83,317.21,65.53,274.53,31.85,188.7,26.09,158.68,17.49,120.94,17.49,120.94Z"/>
        <path id="_Path_53" data-name="&lt;Path&gt;" class="cls-32" d="M8.17,116.87C-21.58,116.08,38.75,295.18,50,330.54c9,28.24,160.36,20.61,174.36,18a9.09,9.09,0,0,0,7.24-6.86c-7.77-10.53-65.77,1.66-97.37-1.42s-64.74-9.11-68-13.59C38.46,288.45,15.47,165.26,8.17,116.87Z"/>
        <rect id="_Path_54" data-name="&lt;Path&gt;" class="cls-33" x="158.6" y="222.97" width="20.33" height="252.85"/>
        <rect id="_Path_55" data-name="&lt;Path&gt;" class="cls-33" x="411.46" y="221.54" width="20.33" height="254.28"/>
        <rect id="_Path_56" data-name="&lt;Path&gt;" class="cls-33" x="119.38" y="218.09" width="351.63" height="10.37"/>
        <rect id="_Path_57" data-name="&lt;Path&gt;" class="cls-34" x="119.38" y="223.27" width="351.63" height="5.18"/>
        <path id="_Path_58" data-name="&lt;Path&gt;" class="cls-27" d="M154.81,329.94c3.41-17,2.81-62-16.67-80C115.64,229,62.32,234.25,34.8,233.22l1.22,18c40.82-.66,115.46-16.21,103.7,77.76Z"/>
        <path id="_Path_59" data-name="&lt;Path&gt;" class="cls-27" d="M121.24,67.75a16.78,16.78,0,0,1,2.19-.31c1-.13,2.63.12,2.58.67s-3.1,15.46-3.1,15.46-3.81-1.82-3-1.6S121.24,67.75,121.24,67.75Z"/>
        <path id="_Compound_Path_" data-name="&lt;Compound Path&gt;" class="cls-27" d="M123.86,67.77c-.65,3.84-1.57,26.75-13.38,26.43-12.73-.34-10.3-14.5-9.91-22.18L37,63.81l.74-4.57,64.76,6.39c3.33-2.54,21,0,21.39,2.14Zm-2.71,2.76h0c.19-2.17-16-3-16.53-2.14-2.26,4.26-4.71,22.64,5.72,23.14C118.66,91.93,120.16,75.88,121.15,70.53Z"/>
        <path id="_Path_60" data-name="&lt;Path&gt;" class="cls-35" d="M104.42,68.06c-1.62,3-3.32,13.07-.63,19.11a7.22,7.22,0,0,0,6.52,4.71c2.74.13,4.77-1.48,6.29-3.91,3.09-5,4.07-13.37,4.75-17.31C121.61,67.48,104.77,67.4,104.42,68.06Z"/>
        <path id="_Path_61" data-name="&lt;Path&gt;" class="cls-36" d="M102.4,77.9a21.52,21.52,0,0,0,1.38,9.27,8.72,8.72,0,0,0,2,2.9c3.83-3.54,9.48-8.77,14.58-13.51.43-2.32.73-4.42,1-5.89.18-2.26-6.8-2.61-8.37-2.75Z"/>
        <path id="_Path_62" data-name="&lt;Path&gt;" class="cls-11" d="M51.9,60.09a16.59,16.59,0,0,0-6.69-1.75C28.17,57,26.17,78,31.28,84.09c4.21,5,10.05,10.26,14.32,10.55s8.94-4.06,10.4-7.81c1.12-2.86,0-12.92-.74-18.9C54.87,64.88,55,61.73,51.9,60.09Z"/>
        <path id="_Path_63" data-name="&lt;Path&gt;" class="cls-12" d="M36.38,60.13c-8.73,5.07-9.13,19.17-5.1,24,4.21,5,10.05,10.26,14.32,10.55a8.9,8.9,0,0,0,5.64-1.92c-2.93-.38-7.35-1.37-10.23-3.18-4.37-2.74-8.64-5.9-10-10s-1.18-7.28.51-12.09A17.78,17.78,0,0,1,36.38,60.13Z"/>
        <path id="_Path_64" data-name="&lt;Path&gt;" class="cls-37" d="M36.4,67.84c-1.79,4.79-.86,13,2.7,16s7.36,4.44,9.38,2.18,3-4.66,1.22-5.57-3.24-.72-3.71-2.73-.21-3.45,1.14-3.94,1.41.53,1.4-2.63C48.48,63.19,38.17,63.08,36.4,67.84Z"/>
        <path id="_Path_65" data-name="&lt;Path&gt;" class="cls-26" d="M414.54,99.6c1.31,3.48,10.89,38.75,18,67.72,4.34,17.79,7.75,33.27,7.75,37.73,0,13-8.49,13-8.52,13H362.61v-3.25h69.11c.34,0,5.28-.32,5.28-9.79,0-4.2-3.36-19.41-7.65-37-7-28.86-16.56-63.92-17.85-67.34Z"/>
        <path id="_Path_66" data-name="&lt;Path&gt;" class="cls-38" d="M407.37,12.65l-3.84-.28L390,199.84l3.74.27c9.78-21.21,17.51-54.71,20.28-92.75.55-7.65.89-15.15,1-22.42C415.49,56,412.64,30.55,407.37,12.65Z"/>
        <rect id="_Path_67" data-name="&lt;Path&gt;" class="cls-39" x="301.79" y="101.25" width="187.96" height="9.57" transform="translate(261.22 493.04) rotate(-85.83)"/>
        <path id="_Path_68" data-name="&lt;Path&gt;" class="cls-40" d="M35.07,19.09A40.38,40.38,0,0,1,57.12,5c22.5-5.37,60.58,12.23,60.16,12.2-1.12-.1-21-4.27-34.15-6.3S55,14,55,14s6.91,1.42,22.16,7.22,31.61,6.5,30.29,6.71-29.09-1-40.25-3.25-15.85-5.79-15.85-5.79A21.09,21.09,0,0,0,59,29.15a55.06,55.06,0,0,0,13.31,7c-.71-.3-17.68-2.34-23.88-5.69a80.35,80.35,0,0,0-8.13-4.07,51.87,51.87,0,0,0,7.93,11.38c4.53,4.58,8.13,6.1,6.91,5.79s-14.84-5.18-18.9-9.76-5-8.33-4.57-7.83,6.81,4.88,6.1,4.37-5.18-7.72-4.37-7.22,13,2.24,13,2.24A27.16,27.16,0,0,0,40.86,22a44.9,44.9,0,0,0-4.37-1.32s2-1.63,7.62-3.25,6.71-1.63,6.71-1.63C50.21,14.49,35.07,17.86,35.07,19.09Z"/>
        <path id="_Path_69" data-name="&lt;Path&gt;" class="cls-40" d="M23.37,36.78s-5.69,2.64-8.44,12.09-.41,16.77,2.34,23,6.2,10.26,5.49,9.25-5.49-10.16-5.28-18.5,2.34-13.21,2.34-13.21-1.12,3.15-.1,12A34.06,34.06,0,0,0,25,76a37,37,0,0,1-1.63-17.68A39.79,39.79,0,0,1,28.45,44.2c-.41.61-2.24,9-1.42,14.23s2.34,8.64,2.24,7.93.71-7.72,4-15.35,5.49-9.55,5.28-9-2.34,7.83-1.63,11.59.81,4.88.71,3.76,1.52-9.55,3.46-13.21S43.8,39.93,43.7,40a8.87,8.87,0,0,0-2.44,1.58,19,19,0,0,0-1.37,1.5c.05-.15.41-4.09.41-4.09s-.28.13-2,1.27a22.11,22.11,0,0,0-2.92,2.64c.15-.3,3.53-5.36,3.53-5.36a12,12,0,0,0-5.56,1.14A17.94,17.94,0,0,0,29.75,41c.05-.13,3.3-4.47,3.15-4.47S27.64,37.64,25.58,39,22,41.84,22,41.71s5.54-6.4,5.23-6.38S23.37,36.78,23.37,36.78Z"/>
        <path id="_Path_70" data-name="&lt;Path&gt;" class="cls-19" d="M334.83,464.65c-18.62,4.26-22.68,4.59-29.91,6.2-.16,3.2,1.05,3.32,2.77,5.25s83.78-18.19,89.24-20.85,5-9.25,3.93-13.39C395.77,452.77,353.45,460.4,334.83,464.65Z"/>
        <rect id="_Path_71" data-name="&lt;Path&gt;" class="cls-39" x="423.45" y="234.38" width="5.7" height="227.65"/>
        <rect id="_Path_72" data-name="&lt;Path&gt;" class="cls-39" x="170.39" y="234.38" width="5.7" height="227.65"/>
        <rect id="_Path_73" data-name="&lt;Path&gt;" class="cls-41" x="156.99" y="470.56" width="23.37" height="5.27"/>
        <rect id="_Path_74" data-name="&lt;Path&gt;" class="cls-41" x="409.93" y="470.56" width="23.37" height="5.27"/>
        <g id="_Group_4" data-name="&lt;Group&gt;">
          <rect id="_Path_75" data-name="&lt;Path&gt;" class="cls-42" x="373.96" y="215.02" width="21.68" height="2.77"/>
          <g id="_Group_5" data-name="&lt;Group&gt;">
            <path id="_Compound_Path_2" data-name="&lt;Compound Path&gt;" class="cls-30" d="M385.21,148l-.09,43.67,9.33,0,.09-43.67-9.33,0Zm3,41.79h0v.42H385.3v-.42Zm.08-40h0v.42h-2.89v-.41Zm-1.4,1h0v.42h-1.5v-.42Zm0,1h0v.41h-1.5v-.42Zm0,1h0v.42h-1.5v-.41Zm0,1h0v.41h-1.5v-.41Zm1.39,1h0v.42h-2.89v-.42Zm-1.4,1h0v.42h-1.5v-.42Zm0,1h0v.42h-1.5v-.42Zm0,1h0v.41h-1.5v-.41Zm0,1h0v.42h-1.5v-.41Zm1.39,1h0v.42h-2.89v-.42Zm-1.4,1h0v.42h-1.5v-.42Zm0,1h0v.42h-1.5v-.42Zm0,1h0v.42h-1.5v-.42Zm0,1h0v.41h-1.5v-.42Zm1.39,1h0v.42h-2.89v-.41Zm-1.4,1h0v.41h-1.5v-.41Zm0,1h0v.41h-1.5v-.41Zm0,1h0v.41h-1.5v-.41Zm0,1h0v.41h-1.5v-.41Zm1.39,1h0v.42h-2.89v-.41Zm-1.4,1h0v.41h-1.5v-.42Zm0,1h0v.42h-1.5v-.41Zm0,1h0v.42h-1.5v-.41Zm0,1h0v.41h-1.5v-.41Zm1.39,1h0v.42h-2.89v-.41Zm-1.4,1h0v.42h-1.5v-.41Zm0,1h0v.42h-1.5v-.41Zm0,1h0v.41h-1.5v-.41Zm0,1h0v.41h-1.5v-.41Zm1.39,1h0v.42h-2.89v-.41Zm-1.4,1h0v.41h-1.5v-.41Zm0,1h0v.42h-1.5v-.41Zm0,1h0v.41h-1.5v-.41Zm0,1h0v.42h-1.5v-.41Zm1.39,1h0v.41h-2.89v-.41Zm-1.4,1h0v.42h-1.5v-.41Zm0,1h0v.42h-1.5v-.41Zm0,1h0v.42h-1.5v-.41Zm0,1h0v.42h-1.5v-.41Z"/>
            <polygon id="_Path_76" data-name="&lt;Path&gt;" class="cls-43" points="391.89 191.71 394.45 191.71 394.54 148.04 391.89 148.04 391.89 191.71"/>
          </g>
          <g id="_Group_6" data-name="&lt;Group&gt;">
            <path id="_Path_77" data-name="&lt;Path&gt;" class="cls-38" d="M382.91,167.08l-2.22.19-.5-4.95a.55.55,0,0,1,.12-.41l.38-.2,1.12-.09a.57.57,0,0,1,.61.51Z"/>
            <path id="_Path_78" data-name="&lt;Path&gt;" class="cls-24" d="M385,169.64l-5.78.49-.45-4.39a.71.71,0,0,1,.65-.79l4.34-.38a.73.73,0,0,1,.53.17.74.74,0,0,1,.26.5Z"/>
            <path id="_Path_79" data-name="&lt;Path&gt;" class="cls-27" d="M381.31,164.79l2.42-.21a.73.73,0,0,1,.53.17.74.74,0,0,1,.26.49l.43,4.26-3.24-.73-.4-4Z"/>
            <polygon id="_Path_80" data-name="&lt;Path&gt;" class="cls-24" points="383.27 210.36 378.89 167.19 384.67 166.69 389.05 209.83 383.27 210.36"/>
            <polygon id="_Path_81" data-name="&lt;Path&gt;" class="cls-27" points="386.09 210.1 381.52 166.97 384.67 166.69 389.05 209.83 386.09 210.1"/>
            <polygon id="_Path_82" data-name="&lt;Path&gt;" class="cls-44" points="384.69 166.95 384.63 166.29 378.24 166.84 378.12 166.85 377.78 167.03 377.67 167.4 378.85 178.91 379.46 178.86 380.05 178.68 379.78 176.02 379.11 175.34 378.36 168 378.47 167.63 378.8 167.46 384.69 166.95"/>
          </g>
          <g id="_Group_7" data-name="&lt;Group&gt;">
            <polygon id="_Path_83" data-name="&lt;Path&gt;" class="cls-27" points="397.43 170.63 394.56 170.37 390.13 211.14 392.99 211.41 397.43 170.63"/>
            <polygon id="_Path_84" data-name="&lt;Path&gt;" class="cls-45" points="395.99 170.5 394.56 170.37 390.13 211.14 391.56 211.28 395.99 170.5"/>
            <path id="_Path_85" data-name="&lt;Path&gt;" class="cls-27" d="M398,160.46c0-.32-1.65-.52-1.72-.16l-2.29,13.07,3.35.31-1,8.93h.06c.11-.07.11,0,.43-1.76s1.31-7.26,1.31-8C398.15,168.58,397.85,165.28,398,160.46Z"/>
            <polygon id="_Path_86" data-name="&lt;Path&gt;" class="cls-46" points="397.38 172.95 393.79 172.61 393.71 173.35 397.3 173.68 397.38 172.95"/>
          </g>
          <g id="_Group_8" data-name="&lt;Group&gt;">
            <polygon id="_Path_87" data-name="&lt;Path&gt;" class="cls-47" points="370.77 172.36 380.1 203.9 383.44 203.06 374.1 171.51 372.25 171.32 370.77 172.36"/>
            <polygon id="_Path_88" data-name="&lt;Path&gt;" class="cls-48" points="370.77 172.36 380.1 203.9 381.77 203.48 372.16 171 370.77 172.36"/>
            <path id="_Path_89" data-name="&lt;Path&gt;" class="cls-11" d="M374.1,171.51l-3.9-7.1.56,7.92c.23.23.54.68.82.61.53-.12,0-1.23.69-1.42s.89,1,1.39.92S374.1,171.51,374.1,171.51Z"/>
            <path id="_Path_90" data-name="&lt;Path&gt;" class="cls-49" d="M370.21,164.41l.56,7.92c.23.23.54.68.82.61.53-.12,0-1.23.69-1.42h0Z"/>
            <polygon id="_Path_91" data-name="&lt;Path&gt;" class="cls-50" points="371.39 166.56 370.21 164.41 370.38 166.82 371.39 166.56"/>
          </g>
          <g id="_Group_9" data-name="&lt;Group&gt;">
            <polygon id="_Path_92" data-name="&lt;Path&gt;" class="cls-47" points="373.46 168.44 378.33 200.83 381.76 200.39 376.89 168 375.08 167.59 373.46 168.44"/>
            <polygon id="_Path_93" data-name="&lt;Path&gt;" class="cls-48" points="373.46 168.44 378.33 200.83 380.04 200.61 375.03 167.25 373.46 168.44"/>
            <path id="_Path_94" data-name="&lt;Path&gt;" class="cls-11" d="M376.89,168,374,160.48l-.55,7.92c.2.26.44.73.72.71.54-.06.13-1.23.88-1.33s.74,1.14,1.25,1.08S376.89,168,376.89,168Z"/>
            <path id="_Path_95" data-name="&lt;Path&gt;" class="cls-49" d="M374,160.48l-.55,7.92c.2.26.44.73.72.71.54-.06.13-1.23.88-1.33h0Z"/>
            <polygon id="_Path_96" data-name="&lt;Path&gt;" class="cls-50" points="374.89 162.77 374.01 160.48 373.85 162.9 374.89 162.77"/>
          </g>
          <path id="_Path_97" data-name="&lt;Path&gt;" class="cls-30" d="M397.72,181.34v32.59a2.4,2.4,0,0,1-2.13,2.58H374a2.4,2.4,0,0,1-2.13-2.58V181.34Z"/>
          <rect id="_Path_98" data-name="&lt;Path&gt;" class="cls-41" x="371.83" y="181.34" width="25.89" height="3.48"/>
          <path id="_Path_99" data-name="&lt;Path&gt;" class="cls-51" d="M397.72,213.93V184.82H384.78v31.69h10.82A2.4,2.4,0,0,0,397.72,213.93Z"/>
          <rect id="_Path_100" data-name="&lt;Path&gt;" class="cls-52" x="384.78" y="181.34" width="12.94" height="3.48"/>
        </g>
        <path id="_Path_101" data-name="&lt;Path&gt;" class="cls-53" d="M460.44,188.18a2.06,2.06,0,0,1,1.89,2.2v11.18a2.07,2.07,0,0,1-1.89,2.21H392.1a2.07,2.07,0,0,1-1.89-2.21V190.38a2.06,2.06,0,0,1,1.89-2.2Z"/>
        <path id="_Path_102" data-name="&lt;Path&gt;" class="cls-54" d="M460.66,178.3a1.57,1.57,0,0,1,1.68,1.44V187a1.58,1.58,0,0,1-1.68,1.44H400a1.58,1.58,0,0,1-1.68-1.44v-7.28A1.57,1.57,0,0,1,400,178.3Z"/>
        <path id="_Path_103" data-name="&lt;Path&gt;" class="cls-55" d="M468.1,164.09a2.06,2.06,0,0,1,2.09,2v10.26a2.06,2.06,0,0,1-2.09,2H392.56a2.06,2.06,0,0,1-2.09-2V166.12a2.06,2.06,0,0,1,2.09-2Z"/>
        <g id="_Group_10" data-name="&lt;Group&gt;">
          <rect id="_Path_104" data-name="&lt;Path&gt;" class="cls-56" x="393.52" y="188.18" width="1.65" height="15.59"/>
          <rect id="_Path_105" data-name="&lt;Path&gt;" class="cls-56" x="395.73" y="188.18" width="1.65" height="15.59"/>
          <rect id="_Path_106" data-name="&lt;Path&gt;" class="cls-56" x="397.94" y="188.18" width="1.65" height="15.59"/>
          <rect id="_Path_107" data-name="&lt;Path&gt;" class="cls-56" x="455.46" y="191.74" width="1.65" height="8.25"/>
          <rect id="_Path_108" data-name="&lt;Path&gt;" class="cls-56" x="457.67" y="191.74" width="1.65" height="8.25"/>
        </g>
        <g id="_Group_11" data-name="&lt;Group&gt;">
          <path id="_Path_109" data-name="&lt;Path&gt;" class="cls-57" d="M464,203.76a2.06,2.06,0,0,1,2.09,2v10.27a2.06,2.06,0,0,1-2.09,2H388.5a2.06,2.06,0,0,1-2.09-2V205.79a2.06,2.06,0,0,1,2.09-2Z"/>
          <rect id="_Path_110" data-name="&lt;Path&gt;" class="cls-58" x="449.88" y="203.77" width="3.32" height="14.32"/>
          <rect id="_Path_111" data-name="&lt;Path&gt;" class="cls-58" x="454.86" y="203.76" width="3.32" height="14.32"/>
        </g>
        <g id="_Group_12" data-name="&lt;Group&gt;">
          <rect id="_Path_112" data-name="&lt;Path&gt;" class="cls-59" x="417.52" y="174.06" width="25.61" height="1.99"/>
          <rect id="_Path_113" data-name="&lt;Path&gt;" class="cls-59" x="417.52" y="170.26" width="25.61" height="1.99"/>
          <rect id="_Path_114" data-name="&lt;Path&gt;" class="cls-59" x="417.52" y="166.47" width="25.61" height="1.98"/>
        </g>
        <rect id="_Path_115" data-name="&lt;Path&gt;" class="cls-60" x="403.21" y="181.07" width="6.81" height="5.39"/>
        <rect id="_Path_116" data-name="&lt;Path&gt;" class="cls-60" x="439.08" y="181.02" width="18.5" height="5.49"/>
        <g id="_Group_13" data-name="&lt;Group&gt;">
          <path id="_Path_117" data-name="&lt;Path&gt;" class="cls-61" d="M507.74,337.42h0a5.16,5.16,0,0,1,5.15,5.15v13.55a5.16,5.16,0,0,1-5.15,5.15h0a5.16,5.16,0,0,1-5.15-5.15V342.57A5.16,5.16,0,0,1,507.74,337.42Z"/>
          <path id="_Path_118" data-name="&lt;Path&gt;" class="cls-62" d="M507.74,361.27h0a5.16,5.16,0,0,1,5.15,5.15V380a5.16,5.16,0,0,1-5.15,5.15h0a5.16,5.16,0,0,1-5.15-5.15V366.42A5.16,5.16,0,0,1,507.74,361.27Z"/>
          <path id="_Path_119" data-name="&lt;Path&gt;" class="cls-63" d="M407.47,313.57H507.74a5.16,5.16,0,0,1,5.15,5.15v13.55a5.16,5.16,0,0,1-5.15,5.15V430H407.47Z"/>
        </g>
        <path id="_Path_120" data-name="&lt;Path&gt;" class="cls-64" d="M495,348.35h0a4.45,4.45,0,0,1,5.27,3.42l2.43,11.44a4.45,4.45,0,0,1-3.42,5.27h0a4.46,4.46,0,0,1-5.27-3.42l-2.43-11.44A4.46,4.46,0,0,1,495,348.35Z"/>
        <path id="_Path_121" data-name="&lt;Path&gt;" class="cls-65" d="M499.32,368.47h0a4.46,4.46,0,0,1,5.27,3.42L507,383.33a4.46,4.46,0,0,1-3.42,5.27h0a4.46,4.46,0,0,1-5.27-3.42l-2.43-11.44A4.45,4.45,0,0,1,499.32,368.47Z"/>
        <path id="_Path_122" data-name="&lt;Path&gt;" class="cls-20" d="M406.14,346.21l84.62-18a4.46,4.46,0,0,1,5.27,3.42l2.43,11.44a4.46,4.46,0,0,1-3.42,5.27l16.62,78.17-84.62,18Z"/>
        <polygon id="_Path_123" data-name="&lt;Path&gt;" class="cls-66" points="398.8 336.07 436.74 336.07 436.74 336.21 533.22 409.29 533.22 475.82 398.8 475.82 398.8 336.07"/>
        <rect id="_Path_124" data-name="&lt;Path&gt;" class="cls-67" x="398.8" y="451.92" width="134.42" height="23.91"/>
        <rect id="_Path_125" data-name="&lt;Path&gt;" class="cls-68" x="398.8" y="442.7" width="134.42" height="4.67"/>
        <rect id="_Path_126" data-name="&lt;Path&gt;" class="cls-39" x="515.86" y="217.68" width="18.88" height="250.62"/>
        <rect id="_Path_127" data-name="&lt;Path&gt;" class="cls-33" x="525.3" y="217.68" width="9.44" height="250.62"/>
        <g id="_Group_14" data-name="&lt;Group&gt;">
          <rect id="_Path_128" data-name="&lt;Path&gt;" class="cls-39" x="450.57" y="336.9" width="190.88" height="18.88" transform="translate(143.09 852.05) rotate(-83.84)"/>
          <rect id="_Path_129" data-name="&lt;Path&gt;" class="cls-33" x="455.26" y="342.13" width="190.88" height="9.44" transform="translate(146.78 857.17) rotate(-83.84)"/>
        </g>
        <g id="_Group_15" data-name="&lt;Group&gt;">
          <rect id="_Path_130" data-name="&lt;Path&gt;" class="cls-39" x="538.9" y="250.72" width="18.88" height="190.88" transform="translate(-43.37 80.86) rotate(-8.11)"/>
          <rect id="_Path_131" data-name="&lt;Path&gt;" class="cls-33" x="548.29" y="250.05" width="9.44" height="190.88" transform="translate(-43.23 81.52) rotate(-8.11)"/>
        </g>
        <path id="_Compound_Path_3" data-name="&lt;Compound Path&gt;" class="cls-69" d="M512.76,322.65h66.66V475.82H512.76V322.65Zm13.9,37.41H523v74.09h3.63V360.06Zm14.17,0h-3.63v74.09h3.63V360.06Zm14.16,0h-3.63v74.09H555V360.06Zm14.17,0h-3.63v74.09h3.63Z"/>
        <rect id="_Path_132" data-name="&lt;Path&gt;" class="cls-70" x="512.76" y="468.3" width="66.66" height="7.91"/>
      </g>
    </g>
  </g>
</svg>
