<svg xmlns="http://www.w3.org/2000/svg" xmlns:xlink="http://www.w3.org/1999/xlink" viewBox="0 0 525.5 152.7">
  <defs>
    <style>
      .cls-1 {
        isolation: isolate;
      }

      .cls-2 {
        fill: #1a1a1a;
      }

      .cls-3 {
        fill: #fc6460;
      }

      .cls-4 {
        fill: url(#radial-gradient);
      }

      .cls-5 {
        opacity: 0.5;
      }

      .cls-6 {
        fill: url(#radial-gradient-2);
      }

      .cls-7 {
        opacity: 0.31;
      }

      .cls-8 {
        fill: url(#radial-gradient-3);
      }

      .cls-9 {
        opacity: 0.36;
      }

      .cls-10 {
        fill: url(#radial-gradient-4);
      }
    </style>
    <radialGradient id="radial-gradient" cx="334.14" cy="1017.63" r="53.72" gradientTransform="translate(-78.38 -232.24) scale(0.34)" gradientUnits="userSpaceOnUse">
      <stop offset="0" stop-color="#fff"/>
      <stop offset="0.13" stop-color="#fff" stop-opacity="0.9"/>
      <stop offset="0.4" stop-color="#fff" stop-opacity="0.64"/>
      <stop offset="0.78" stop-color="#fff" stop-opacity="0.24"/>
      <stop offset="1" stop-color="#fff" stop-opacity="0"/>
    </radialGradient>
    <radialGradient id="radial-gradient-2" cx="35.7" cy="438" r="27.71" gradientTransform="translate(0 -324)" xlink:href="#radial-gradient"/>
    <radialGradient id="radial-gradient-3" cx="35.75" cy="438.05" r="27.72" gradientTransform="translate(0 -324)" xlink:href="#radial-gradient"/>
    <radialGradient id="radial-gradient-4" cx="35.7" cy="438" r="27.54" gradientTransform="translate(0 -324)" xlink:href="#radial-gradient"/>
  </defs>
  <title>Asset 1</title>
  <g id="Layer_2" data-name="Layer 2">
    <g id="Layer_1-2" data-name="Layer 1">
      <g id="Layer_2-2" data-name="Layer 2">
        <g id="hamodey">
          <g class="cls-1">
            <path class="cls-2" d="M61.7,39.6c-.6,1.3-1.1,4.8-1.3,10.5A27.16,27.16,0,0,1,59,58.5c-.8,2.2-1.9,3.4-3.2,3.4a5.31,5.31,0,0,1-3.7-1.4,5.2,5.2,0,0,1-1.5-4,27.1,27.1,0,0,1,1-6.4c1.5-6.1,3.2-19,5.1-38.6a3.82,3.82,0,0,1,1.4-2.3,4,4,0,0,1,2.6-1.1c3.1,0,4.6,1.9,4.6,5.8a53.86,53.86,0,0,1-1.1,8.3A58.46,58.46,0,0,0,63,31.7a4.67,4.67,0,0,0,2.5.4c3.3,0,7.9-.3,14-.8s9.3-1.2,9.7-2,.9-3.2,1.4-7.1a98.53,98.53,0,0,0,.8-12.5c0-.7.5-1.4,1.5-2.4a4.26,4.26,0,0,1,3.2-1.4,4.38,4.38,0,0,1,3.2,1.2,3.87,3.87,0,0,1,1.3,3.1,59,59,0,0,1-1.3,9.6c-1,5.2-1.8,11.8-2.5,19.9s-1,13.5-1,16.2A5.6,5.6,0,0,1,94,59.7c-1.2,1.2-2.3,1.9-3.3,1.9a4.8,4.8,0,0,1-3-1.2,3.6,3.6,0,0,1-1.4-3c0-.8.3-3.5.9-8.2a87.78,87.78,0,0,0,.9-9.6c0-1.1-.2-1.7-.7-1.7-1.1,0-3.3.1-6.5.4s-5.5.4-6.7.4c-.9,0-3.1.1-6.8.4A29.57,29.57,0,0,0,61.7,39.6Z"/>
            <path class="cls-2" d="M131.5,47.6c-6.2,8.1-12.1,12.2-17.9,12.2a6.91,6.91,0,0,1-5.4-2.5,9.29,9.29,0,0,1-2.3-6.4c0-6.2,2.8-12.8,8.3-19.8s11.1-10.5,16.7-10.5c2.9,0,4.7,1.4,5.6,4.3,2.7,0,4,1,4,3.1a33.77,33.77,0,0,1-.8,5.3,67.35,67.35,0,0,0-1.4,11.6,22.57,22.57,0,0,0,.6,6.3,22.06,22.06,0,0,0,.9,2.4,3.51,3.51,0,0,0,1.7,1.2,2.1,2.1,0,0,1,1.4,1.9,3.53,3.53,0,0,1-1.8,3,6.82,6.82,0,0,1-3.8,1.2C133,60.9,131,56.5,131.5,47.6Zm-2.1-19.5c-2.4,0-5.4,2.6-9.2,7.9s-5.7,9.7-5.7,13.3c0,1.9.4,2.9,1.2,2.9,2.8,0,6.2-2.5,10.2-7.4s6.1-9.2,6.1-12.9a4.65,4.65,0,0,0-.8-2.8A2.25,2.25,0,0,0,129.4,28.1Z"/>
            <path class="cls-2" d="M158.8,57.3c-.3,2.4-1.6,3.6-4,3.6-3.1,0-4.6-2.2-4.6-6.6a120.56,120.56,0,0,1,1.2-18.4,78.83,78.83,0,0,0,.9-11.7,3.17,3.17,0,0,1,.9-2.3,3.33,3.33,0,0,1,2.5-.9c3.5,0,5.3,2.1,5.3,6.4,0,1.4-.6,4.9-1.9,10.6a34.39,34.39,0,0,0-1.1,7.3c6.7-14.7,12.7-22.1,18.1-22.1a6.54,6.54,0,0,1,5.3,2.6c1.3,1.7,2,5.6,2.1,11.5,0,5.4.3,8.2.8,8.2s1.9-2.6,4.4-7.9c2.8-5.8,5.2-9.7,7.2-11.6a9,9,0,0,1,6.2-2.8,6,6,0,0,1,5.7,3.4c1.2,2.2,2,6,2.5,11.3a63.12,63.12,0,0,0,1.4,9.6c.6,2.2,1.6,3.6,3.1,4.3a2.73,2.73,0,0,1,1.8,2.5c0,1-.7,2-2,3a6.7,6.7,0,0,1-4.1,1.5,6.21,6.21,0,0,1-5.6-3.5c-1.3-2.4-2.3-7.1-2.7-14.2a54.57,54.57,0,0,0-.8-6.8c-.3-1.1-.7-1.7-1.3-1.7s-1.3.8-2.3,2.5-2.7,5-5.1,10a45.38,45.38,0,0,1-5.5,9.4,6.5,6.5,0,0,1-4.9,2.7,6.25,6.25,0,0,1-4.1-1.8c-1.4-1.2-2.1-5.4-2.2-12.8-.1-6.5-.5-9.8-1.3-9.8-1,0-3.4,2.9-7.1,8.7A87.31,87.31,0,0,0,158.8,57.3Z"/>
            <path class="cls-2" d="M254.7,41.6a29.06,29.06,0,0,1-8.9,13.9c-4.3,3.8-8.8,5.6-13.2,5.6a11.15,11.15,0,0,1-8.6-3.8,13.43,13.43,0,0,1-3.4-9.4c0-6,2.1-12,6.2-17.9s9.1-8.8,15-8.8a12.07,12.07,0,0,1,9.7,4.4,15.94,15.94,0,0,1,3.7,10.6,19.43,19.43,0,0,1-.5,5.4ZM236.4,30.5a24.78,24.78,0,0,0-4.8,7,21.3,21.3,0,0,0-2.4,9.6,9.74,9.74,0,0,0,1.1,4.8,3.16,3.16,0,0,0,2.8,1.9c2.9,0,5.9-1.7,9.1-5.2A16.86,16.86,0,0,0,246.9,37a11.13,11.13,0,0,0-1.5-6,4.66,4.66,0,0,0-4.3-2.3,7.3,7.3,0,0,0-4.7,1.8Z"/>
            <path class="cls-2" d="M286.9,47.7q-9.15,12.9-18.3,12.9a7.3,7.3,0,0,1-6-2.9,12,12,0,0,1-2.3-7.5c0-6.1,2.5-12.2,7.5-18.2s10.1-9.1,15.2-9.1c3,0,5,.8,6.3,2.3,1.8-7.7,2.8-12.5,3.1-14.4a42.58,42.58,0,0,1,1.8-7.1A5.82,5.82,0,0,1,296.3,1a5.4,5.4,0,0,1,2.5-1,3,3,0,0,1,2.7,1.5,7,7,0,0,1,.9,3.7,31,31,0,0,1-1.5,5.7,147.61,147.61,0,0,0-4.7,18.4c-1.4,7.2-2.2,12.9-2.2,17.1s.9,6.1,2.7,6.1a6.48,6.48,0,0,0,2.9-.7,5.76,5.76,0,0,1,2.2-.7c1.1,0,1.7.7,1.7,2,0,1.6-1.2,3.2-3.5,4.8a11.66,11.66,0,0,1-6.6,2.4c-2.3,0-4-1.2-5.2-3.6A18.43,18.43,0,0,1,286.9,47.7ZM283,29.6c-3.1,0-6.3,2.3-9.6,7s-5,9-5,12.9c0,2.3.8,3.4,2.5,3.4,2.9,0,6.3-2.5,10.2-7.6s5.9-9.1,5.9-12.1a3.77,3.77,0,0,0-1.1-2.5A4,4,0,0,0,283,29.6Z"/>
            <path class="cls-2" d="M341,47.3c0,2.4-2.1,5.3-6.2,8.7a21.13,21.13,0,0,1-13.9,5.1c-4,0-7.1-1.2-9.4-3.7s-3.4-6-3.4-10.4c0-6.6,2.3-12.7,7-18.5s9.7-8.6,14.9-8.6a8.37,8.37,0,0,1,8.7,8.4c0,4.1-2,8-5.9,11.7a31.46,31.46,0,0,1-15,7.6,1.29,1.29,0,0,0-1.1,1.3,4.55,4.55,0,0,0,1.5,3.2,5.35,5.35,0,0,0,4,1.5c4.7,0,9.4-2.4,14-7.3a4,4,0,0,1,2.6-1.4A2.06,2.06,0,0,1,341,47.3Zm-23.6-6.2a21.84,21.84,0,0,0,9.8-4.7q4.2-3.6,4.2-6.6a2.88,2.88,0,0,0-.7-2A2.14,2.14,0,0,0,329,27c-2,0-4.3,1.5-6.8,4.5A24.14,24.14,0,0,0,317.4,41.1Z"/>
            <path class="cls-2" d="M380.8,38.7a147.65,147.65,0,0,1-2,16.6,67.53,67.53,0,0,1-4.2,14.6c-1.9,4.4-3.8,7.3-5.9,8.9a12.11,12.11,0,0,1-7.6,2.4,23,23,0,0,1-9-1.8h0a21.75,21.75,0,0,1-6.5-4.1c-1.8-1.7-2.8-3.2-2.8-4.4a4,4,0,0,1,.8-2.6,2.57,2.57,0,0,1,2.2-1,2.17,2.17,0,0,1,1.9,1c3,3.9,7.4,5.8,13.1,5.8,2.3,0,4.6-2.4,6.7-7.3a54.25,54.25,0,0,0,4.1-17.5c-7.2,5.7-12.8,8.6-16.7,8.6a7.13,7.13,0,0,1-6-3,11.72,11.72,0,0,1-2.2-7.3,58.06,58.06,0,0,1,2-12.4c1.3-5.4,2.4-8.8,3.4-10.1a5.11,5.11,0,0,1,4.5-2,2.9,2.9,0,0,1,2.6,1.5,6,6,0,0,1,.9,3.2c0,.4-.8,2.3-2.5,5.9-2.1,4.4-3.1,8.2-3.1,11.4a7.37,7.37,0,0,0,.7,3.7c.5.8.9,1.3,1.4,1.3a10.54,10.54,0,0,0,4.1-1,32.61,32.61,0,0,0,5.7-3.5,18.48,18.48,0,0,0,4.2-3.8,12,12,0,0,0,1.5-3.4,49.51,49.51,0,0,0,.9-9.1,51.05,51.05,0,0,1,.4-5.1,3.61,3.61,0,0,1,1.2-1.9,3.83,3.83,0,0,1,2.7-.9,4.5,4.5,0,0,1,3.3,1c.7.7,1,2.2,1,4.6Z"/>
            <path class="cls-2" d="M421.5,58.5a5.22,5.22,0,0,1-3.1-.8c-.7-.5-1-2-1-4.3a21.13,21.13,0,0,1,.2-3c.1-.7.7-1.2,1.7-1.6a12.54,12.54,0,0,1,4.4-.6,4.83,4.83,0,0,1,3.3,1,2.78,2.78,0,0,1,1.1,2.2,6.12,6.12,0,0,1-.6,3,9.56,9.56,0,0,1-2.7,2.6A6.49,6.49,0,0,1,421.5,58.5Z"/>
            <path class="cls-2" d="M445.2,57.3c-.3,2.4-1.6,3.6-4,3.6-3.1,0-4.6-2.2-4.6-6.6a120.55,120.55,0,0,1,1.2-18.4,78.83,78.83,0,0,0,.9-11.7,3.17,3.17,0,0,1,.9-2.3,3.33,3.33,0,0,1,2.5-.9c3.5,0,5.3,2.1,5.3,6.4,0,1.4-.6,4.9-1.9,10.6a34.39,34.39,0,0,0-1.1,7.3c6.7-14.7,12.8-22.1,18.1-22.1a6.54,6.54,0,0,1,5.3,2.6c1.4,1.7,2,5.6,2.1,11.5,0,5.4.3,8.2.8,8.2s1.9-2.6,4.4-7.9c2.8-5.8,5.2-9.7,7.2-11.6a9,9,0,0,1,6.2-2.8,6,6,0,0,1,5.7,3.4c1.2,2.3,2,6,2.5,11.3a63.11,63.11,0,0,0,1.4,9.6c.6,2.2,1.6,3.6,3.1,4.3a2.73,2.73,0,0,1,1.8,2.5c0,1-.7,2-2,3a7.64,7.64,0,0,1-4.3,1.6,6.21,6.21,0,0,1-5.6-3.5c-1.3-2.3-2.3-7.1-2.7-14.2a54.57,54.57,0,0,0-.8-6.8c-.3-1.1-.7-1.7-1.3-1.7s-1.3.8-2.3,2.5-2.7,5-5.1,10a45.38,45.38,0,0,1-5.5,9.4,6.5,6.5,0,0,1-4.9,2.7,6.25,6.25,0,0,1-4.1-1.8c-1.4-1.2-2.1-5.4-2.2-12.8-.1-6.5-.5-9.8-1.3-9.8-1,0-3.4,2.9-7.1,8.7A106.09,106.09,0,0,0,445.2,57.3Z"/>
          </g>
        </g>
        <g id="line">
          <g id="line-2">
            <path class="cls-3" d="M35.9,114c40.8-2.9,81.6-4.4,122.4-5.5s81.6-1.5,122.4-1.5,81.6.5,122.4,1.5,81.6,2.6,122.4,5.5c-40.8,2.9-81.6,4.4-122.4,5.5S321.5,121,280.7,121s-81.6-.5-122.4-1.5S76.7,116.9,35.9,114Z"/>
          </g>
        </g>
        <g id="Layer_4" data-name="Layer 4">
          <g>
            <circle class="cls-4" cx="35.7" cy="114" r="18.5"/>
            <g class="cls-5">
              <path class="cls-6" d="M0,98.8c6,2.3,12,4.8,18,7.3s11.9,5,17.9,7.5l17.8,7.7,8.9,3.9c2.9,1.3,5.9,2.7,8.8,4l-9-3.6-9-3.7-17.9-7.5c-5.9-2.6-11.9-5.1-17.8-7.7S5.9,101.5,0,98.8Z"/>
            </g>
            <g class="cls-7">
              <path class="cls-8" d="M2.1,133.4c5.5-3.4,11.1-6.7,16.6-10s11.2-6.5,16.8-9.8L52.4,104l8.5-4.7c2.8-1.6,5.7-3.1,8.5-4.6-2.8,1.7-5.5,3.4-8.3,5.1l-8.3,5L36,114.5c-5.6,3.2-11.2,6.4-16.9,9.6S7.8,130.4,2.1,133.4Z"/>
            </g>
            <g class="cls-9">
              <path class="cls-10" d="M32.5,75.3c.7,6.4,1.4,12.9,2,19.3s1.1,12.9,1.7,19.3l1.5,19.4.7,9.7c.2,3.2.4,6.5.5,9.7-.4-3.2-.7-6.4-1-9.6l-.9-9.7-1.7-19.3c-.5-6.4-1-12.9-1.5-19.4S32.8,81.8,32.5,75.3Z"/>
            </g>
          </g>
        </g>
      </g>
    </g>
  </g>
</svg>
