<svg xmlns="http://www.w3.org/2000/svg" viewBox="0 0 524 799.41">
  <defs>
    <style>
      .cls-1, .cls-5 {
        fill: #44575d;
      }

      .cls-1, .cls-4 {
        opacity: 0.15;
      }

      .cls-2 {
        fill: #d5e8f7;
      }

      .cls-3 {
        fill: #fff;
      }

      .cls-6 {
        fill: #e8a27c;
      }

      .cls-7 {
        fill: #ffa52e;
      }

      .cls-8 {
        fill: #ff8431;
      }

      .cls-9 {
        fill: #ff5f2e;
      }

      .cls-10 {
        fill: #335572;
      }

      .cls-11 {
        fill: #152e42;
      }

      .cls-12, .cls-21 {
        fill: #ff862c;
      }

      .cls-13 {
        fill: #fbbd96;
      }

      .cls-14 {
        fill: #a7b442;
      }

      .cls-15 {
        fill: #c2d64a;
      }

      .cls-16 {
        fill: #e4f0dc;
      }

      .cls-17 {
        fill: #e9c451;
      }

      .cls-18 {
        fill: #ffd859;
      }

      .cls-19 {
        fill: #017783;
      }

      .cls-20 {
        fill: #018391;
      }

      .cls-21 {
        font-size: 33px;
        font-family: Montserrat-SemiBold, Montserrat SemiBold;
        font-weight: 700;
      }

      .cls-22 {
        letter-spacing: 0.02em;
      }

      .cls-23 {
        letter-spacing: 0.03em;
      }

      .cls-24 {
        letter-spacing: -0.01em;
      }
    </style>
  </defs>
  <title>Asset 1</title>
  <g id="Layer_2" data-name="Layer 2">
    <g id="Objects">
      <g>
        <circle class="cls-1" cx="262" cy="431.7" r="262"/>
        <circle class="cls-2" cx="262" cy="416.07" r="262"/>
        <circle class="cls-3" cx="262" cy="400.08" r="262"/>
      </g>
      <g class="cls-4">
        <path class="cls-5" d="M279.71,421.84a2.29,2.29,0,0,0,2.29-2.29V396.6a2.29,2.29,0,1,0-4.59,0v22.94A2.29,2.29,0,0,0,279.71,421.84Z"/>
        <path class="cls-5" d="M306.92,426.69a2.29,2.29,0,0,0,2.95-1.36l7.92-21.53a2.29,2.29,0,0,0-4.31-1.58l-7.92,21.53A2.29,2.29,0,0,0,306.92,426.69Z"/>
        <path class="cls-5" d="M332.76,441.9l14.87-17.47a2.29,2.29,0,0,0-3.49-3l-14.87,17.47a2.29,2.29,0,0,0,3.49,3Z"/>
        <path class="cls-5" d="M345.12,463.13a2.29,2.29,0,0,0,3.13.87l20-11.26a2.29,2.29,0,0,0-2.25-4L346,460A2.29,2.29,0,0,0,345.12,463.13Z"/>
        <path class="cls-5" d="M379.64,483.62a2.29,2.29,0,0,0-2.63-1.9l-22.65,3.67a2.29,2.29,0,0,0,.73,4.53l22.65-3.67A2.29,2.29,0,0,0,379.64,483.62Z"/>
        <path class="cls-5" d="M376.23,515.8l-22.52-4.38a2.29,2.29,0,0,0-.88,4.5l22.52,4.38a2.29,2.29,0,1,0,.88-4.5Z"/>
        <path class="cls-5" d="M363.43,548.12,343.8,536.23a2.29,2.29,0,0,0-2.38,3.93L361.05,552a2.29,2.29,0,1,0,2.38-3.93Z"/>
        <path class="cls-5" d="M251.48,425.33a2.29,2.29,0,1,0,4.31-1.58l-7.92-21.53a2.29,2.29,0,1,0-4.31,1.58Z"/>
        <path class="cls-5" d="M228.58,441.9a2.29,2.29,0,0,0,3.49-3L217.2,421.45a2.29,2.29,0,0,0-3.49,3Z"/>
        <path class="cls-5" d="M193.1,452.74l20,11.26a2.29,2.29,0,0,0,2.25-4l-20-11.26a2.29,2.29,0,1,0-2.25,4Z"/>
        <path class="cls-5" d="M206.25,489.92a2.29,2.29,0,1,0,.73-4.53l-22.65-3.67a2.29,2.29,0,0,0-.73,4.53Z"/>
        <path class="cls-5" d="M210.32,513.24a2.29,2.29,0,0,0-2.69-1.81l-22.52,4.38a2.29,2.29,0,1,0,.88,4.5l22.52-4.38A2.29,2.29,0,0,0,210.32,513.24Z"/>
        <path class="cls-5" d="M217.54,536.23l-19.63,11.88a2.29,2.29,0,1,0,2.38,3.93l19.63-11.88a2.29,2.29,0,0,0-2.38-3.93Z"/>
        <path class="cls-5" d="M349.06,681.57h-7.51V599.76l-9-25.52H308v-2h1.2a1.48,1.48,0,0,0,1.48-1.48v-.6a1.48,1.48,0,0,0-1.48-1.48H307.7c1.79-13.38,11.32-30,24.51-48.09h-.07a59.3,59.3,0,0,0-53.2-85.54h0a59.25,59.25,0,0,0-53.2,85.54h-.07l.43.76c.78,1.52,1.63,3,2.53,4.44,10.24,13.45,18.4,25.92,22.42,36.44h-9.59v18h8.38v3.64h-1.2a1.48,1.48,0,0,0-1.48,1.48v.6a1.47,1.47,0,0,0,0,.29h-5.73v18H250v5.25h-8.51v18H250V631h-8.51v18H250l36,21.27v11.26h-6v14.26h-8.52V799.41h83.6V695.83h-6Z"/>
      </g>
      <g>
        <g>
          <polygon class="cls-6" points="218 571.24 309.57 599.76 309.57 695.83 254.03 695.83 254.03 670.31 218 649.05 218 571.24"/>
          <g>
            <g>
              <path class="cls-7" d="M306.31,494.4a59.35,59.35,0,1,0-112.55,26.19h-.07l.43.76c.78,1.52,1.63,3,2.53,4.44,12.41,16.31,21.79,31.19,24.42,42.89h54.64c1.79-13.38,11.32-30,24.51-48.09h-.07A59,59,0,0,0,306.31,494.4Z"/>
              <path class="cls-8" d="M275.72,568.67c1.79-13.38,11.32-30,24.51-48.09h-.07A59.25,59.25,0,0,0,247,435.05V568.67Z"/>
              <path class="cls-9" d="M293.27,490.19a2.75,2.75,0,0,1-2.68-2.13c-7.05-30.38-28.13-35.2-29-35.39a2.75,2.75,0,0,1,1.11-5.39c1,.21,25.4,5.57,33.28,39.54a2.75,2.75,0,0,1-2.06,3.31A2.63,2.63,0,0,1,293.27,490.19Z"/>
            </g>
            <g>
              <path class="cls-10" d="M238.67,571.86a2.12,2.12,0,0,1-2-1.41l-15.07-53.89a2.12,2.12,0,0,1,4-1.42L240.67,569a2.12,2.12,0,0,1-2,2.83Z"/>
              <path class="cls-10" d="M255.24,571.86a2.12,2.12,0,0,1-2-2.79L267,515.19a2.12,2.12,0,1,1,4,1.33l-13.77,53.89A2.12,2.12,0,0,1,255.24,571.86Z"/>
              <path class="cls-10" d="M273.18,532.29a2.11,2.11,0,0,1-1.18-.36l-10.91-7.33-4.82,3.26a2.14,2.14,0,0,1-2.15.14l-7-3.55-6.17,3.5a2.12,2.12,0,0,1-2.07,0l-6.24-3.43-10.69,7.38a2.12,2.12,0,1,1-2.41-3.49l11.77-8.13a2.12,2.12,0,0,1,2.23-.11l6.35,3.49L246,520.2a2.15,2.15,0,0,1,2,0l6.91,3.5,5-3.36a2.12,2.12,0,0,1,2.37,0l12.1,8.13a2.12,2.12,0,0,1-1.18,3.88Z"/>
            </g>
            <g>
              <rect class="cls-10" x="217.87" y="570.45" width="58.18" height="30.54"/>
              <g>
                <rect class="cls-11" x="215.19" y="568.67" width="63.54" height="3.56" rx="1.48" ry="1.48"/>
                <rect class="cls-11" x="215.19" y="576.28" width="63.54" height="3.56" rx="1.48" ry="1.48"/>
                <rect class="cls-11" x="215.19" y="583.88" width="63.54" height="3.56" rx="1.48" ry="1.48"/>
                <rect class="cls-11" x="215.19" y="591.49" width="63.54" height="3.56" rx="1.48" ry="1.48"/>
                <rect class="cls-11" x="215.19" y="599.1" width="63.54" height="3.56" rx="1.48" ry="1.48"/>
              </g>
            </g>
            <g>
              <path class="cls-12" d="M247.73,421.84a2.29,2.29,0,0,1-2.29-2.29V396.6a2.29,2.29,0,1,1,4.59,0v22.94A2.29,2.29,0,0,1,247.73,421.84Z"/>
              <path class="cls-12" d="M274.94,426.69a2.29,2.29,0,0,1-1.36-2.95l7.92-21.53a2.29,2.29,0,1,1,4.31,1.58l-7.92,21.53A2.29,2.29,0,0,1,274.94,426.69Z"/>
              <path class="cls-12" d="M297.55,442.16a2.29,2.29,0,0,1-.26-3.23l14.87-17.47a2.29,2.29,0,1,1,3.49,3L300.78,441.9A2.29,2.29,0,0,1,297.55,442.16Z"/>
              <path class="cls-12" d="M313.14,463.13A2.29,2.29,0,0,1,314,460l20-11.26a2.29,2.29,0,0,1,2.25,4l-20,11.26A2.29,2.29,0,0,1,313.14,463.13Z"/>
              <path class="cls-12" d="M320.48,488a2.29,2.29,0,0,1,1.9-2.63L345,481.72a2.29,2.29,0,1,1,.73,4.53l-22.65,3.67A2.29,2.29,0,0,1,320.48,488Z"/>
              <path class="cls-12" d="M319,513.24a2.29,2.29,0,0,1,2.69-1.81l22.52,4.38a2.29,2.29,0,0,1-.88,4.5l-22.52-4.38A2.29,2.29,0,0,1,319,513.24Z"/>
              <path class="cls-12" d="M308.67,537a2.29,2.29,0,0,1,3.15-.77l19.63,11.88a2.29,2.29,0,1,1-2.38,3.93l-19.63-11.88A2.29,2.29,0,0,1,308.67,537Z"/>
              <path class="cls-12" d="M222.44,426.69a2.29,2.29,0,0,0,1.36-2.95l-7.92-21.53a2.29,2.29,0,0,0-4.31,1.58l7.92,21.53A2.29,2.29,0,0,0,222.44,426.69Z"/>
              <path class="cls-12" d="M199.83,442.16a2.29,2.29,0,0,0,.26-3.23l-14.87-17.47a2.29,2.29,0,1,0-3.49,3L196.6,441.9A2.29,2.29,0,0,0,199.83,442.16Z"/>
              <path class="cls-12" d="M184.24,463.13a2.29,2.29,0,0,0-.87-3.13l-20-11.26a2.29,2.29,0,0,0-2.25,4l20,11.26A2.29,2.29,0,0,0,184.24,463.13Z"/>
              <path class="cls-12" d="M176.9,488a2.29,2.29,0,0,0-1.9-2.63l-22.65-3.67a2.29,2.29,0,0,0-.73,4.53l22.65,3.67A2.29,2.29,0,0,0,176.9,488Z"/>
              <path class="cls-12" d="M178.34,513.24a2.29,2.29,0,0,0-2.69-1.81l-22.52,4.38a2.29,2.29,0,1,0,.88,4.5l22.52-4.38A2.29,2.29,0,0,0,178.34,513.24Z"/>
              <path class="cls-12" d="M188.71,537a2.29,2.29,0,0,0-3.15-.77l-19.63,11.88a2.29,2.29,0,0,0,2.38,3.93l19.63-11.88A2.29,2.29,0,0,0,188.71,537Z"/>
            </g>
          </g>
          <g>
            <path class="cls-13" d="M238.52,580.24h-29c-9.49,0-9-18,0-18h29C248.67,562.25,249.85,580.24,238.52,580.24Z"/>
            <path class="cls-13" d="M238.52,604.26h-29c-8.63.26-9.4-17.8,0-18h29C249.83,586.25,250,604.26,238.52,604.26Z"/>
            <path class="cls-13" d="M238.52,627.53h-29c-9.49,0-8.33-18,0-18h29C249,609.75,250.83,627.53,238.52,627.53Z"/>
            <path class="cls-13" d="M238.52,649h-29c-9.13-1-8.19-17.3,0-18h29C251.73,630.41,250,649,238.52,649Z"/>
            <path class="cls-13" d="M309.57,695.83V599.76l-9-25.52h-41.9c-13.17,0-5.39,17.84,5.12,19.85l18,2.67,8.26,18L269,635v60.8Z"/>
          </g>
        </g>
        <g>
          <rect class="cls-11" x="248.02" y="681.57" width="69.05" height="14.26"/>
          <rect class="cls-10" x="282.51" y="681.57" width="34.57" height="14.26"/>
        </g>
        <g>
          <g>
            <rect class="cls-14" x="239.5" y="695.83" width="83.6" height="103.58"/>
            <rect class="cls-15" x="282.34" y="695.83" width="40.76" height="103.58"/>
          </g>
          <circle class="cls-16" cx="260.16" cy="717.98" r="8.88"/>
        </g>
      </g>
      <polygon class="cls-1" points="253.93 130.4 253.93 117.84 247.18 117.84 247.18 103.58 238.66 103.58 238.66 0 281.49 0 322.26 0 322.26 103.58 316.23 103.58 316.23 117.84 310.85 117.84 310.85 129.45 310.87 133.41 333.29 150.58 350.02 176.18 335.34 190.81 314.79 169.7 296.04 164.08 296.01 164.12 302.54 179.58 317.52 191.28 312.43 205.59 288.92 189.32 295.39 202.15 315.69 214.37 311.57 231.49 282.54 217.58 276.54 209.69 278.54 221.08 301.5 240.04 296.88 258.73 269.45 240.55 266.38 233.66 267.91 247.22 284.28 262.92 278.58 282.38 252.47 258.91 232.1 187.49 253.93 130.4"/>
      <g>
        <g>
          <g>
            <path class="cls-6" d="M243.5,221.08l23,19c11.28,8.29,8,24.29-4.62,18.69l-27.43-18.18L204.2,172.71,237,184.17Z"/>
            <path class="cls-6" d="M260.36,202.15l20.3,12.22c9,6.63,5.43,20.71-4.12,17.12l-29-13.91-37.72-49.63,34.66,2.68Z"/>
            <path class="cls-6" d="M282.49,191.28c7.51,5.8,2,17.3-5.09,14.31l-56.37-39,36.6-10.39,9.88,23.38Z"/>
          </g>
          <path class="cls-13" d="M315,176.17c6,10.41-6.24,21.41-14.69,14.63l-20.55-21.1L261,164.08l-33,39.38,4.92,43.76,16.37,15.7c11.26,10.66,4.32,25.91-5.7,19.46l-26.11-23.47-20.37-71.42,21.82-57.09V117.84h56.92v11.61l0,4,22.42,17.17Z"/>
        </g>
        <g>
          <g>
            <rect class="cls-17" x="212.14" y="103.58" width="69.05" height="14.26"/>
            <rect class="cls-18" x="246.63" y="103.58" width="34.57" height="14.26"/>
          </g>
          <g>
            <g>
              <rect class="cls-19" x="203.62" width="83.6" height="103.58"/>
              <rect class="cls-20" x="246.46" width="40.76" height="103.58"/>
            </g>
            <circle class="cls-16" cx="224.28" cy="81.44" r="8.88"/>
          </g>
        </g>
      </g>
      <g>
        <text class="cls-21" transform="translate(56.77 339.43)">L<tspan class="cls-22" x="15.58" y="0">E</tspan><tspan class="cls-23" x="32.34" y="0">T</tspan><tspan class="cls-24" x="49.86" y="0">’</tspan><tspan x="56.43" y="0">S SHARE OUR IDEAS</tspan></text>
        <text></text>
      </g>
    </g>
  </g>
</svg>
